<?xml version="1.0" encoding="utf-8"?>
<!-- Generator: Adobe Illustrator 16.2.1, SVG Export Plug-In . SVG Version: 6.00 Build 0)  -->
<!DOCTYPE svg PUBLIC "-//W3C//DTD SVG 1.1//EN" "http://www.w3.org/Graphics/SVG/1.1/DTD/svg11.dtd">
<svg version="1.1" id="Layer_1" xmlns="http://www.w3.org/2000/svg" xmlns:xlink="http://www.w3.org/1999/xlink" x="0px" y="0px"
	 width="64px" height="64px" viewBox="0 0 64 64" enable-background="new 0 0 64 64" xml:space="preserve">
<path fill="#00CCFF" d="M32,0C14.327,0,0,14.327,0,32c0,17.674,14.327,32,32,32c17.674,0,32-14.326,32-32C64,14.327,49.674,0,32,0z
	 M32,60c-1.507,0-2.995-0.12-4.455-0.354c-1.301-1.386-2.531-3.353-3.612-5.82c-0.95-2.176-1.741-4.623-2.358-7.271
	C24.873,46.189,28.387,46,32,46c3.613,0,7.128,0.189,10.427,0.555c-0.616,2.648-1.407,5.098-2.358,7.271
	c-1.08,2.469-2.312,4.436-3.611,5.82C34.996,59.88,33.508,60,32,60z M32,44c-3.806,0-7.455,0.209-10.84,0.592
	c-0.7-3.607-1.094-7.527-1.149-11.592H43.99c-0.057,4.064-0.449,7.984-1.15,11.592C39.456,44.209,35.807,44,32,44z M32,4
	c1.508,0,2.996,0.12,4.456,0.353c1.3,1.386,2.53,3.353,3.61,5.821c0.951,2.175,1.742,4.623,2.359,7.272
	C39.128,17.81,35.613,18,32,18c-3.613,0-7.127-0.19-10.426-0.554c0.617-2.649,1.408-5.098,2.358-7.272
	c1.081-2.469,2.312-4.436,3.612-5.821C29.005,4.12,30.493,4,32,4z M32,20c3.807,0,7.456-0.209,10.84-0.592
	c0.701,3.607,1.094,7.527,1.15,11.592H20.011c0.056-4.064,0.449-7.984,1.149-11.592C24.545,19.791,28.194,20,32,20z M45.993,31
	c-0.058-4.201-0.468-8.197-1.167-11.84c4.076-0.561,7.703-1.38,10.678-2.392C58.251,20.99,59.802,25.875,59.98,31H45.993z
	 M18.008,31H4.02c0.179-5.125,1.729-10.01,4.478-14.231c2.973,1.012,6.602,1.831,10.677,2.392
	C18.475,22.803,18.064,26.799,18.008,31z M18.008,33c0.057,4.201,0.467,8.197,1.166,11.84c-4.075,0.561-7.704,1.38-10.677,2.393
	C5.749,43.01,4.198,38.125,4.02,33H18.008z M45.993,33H59.98c-0.18,5.125-1.729,10.01-4.478,14.23
	c-2.974-1.011-6.601-1.83-10.677-2.391C45.525,41.197,45.938,37.201,45.993,33z M54.3,15.062c-0.104,0.034-0.206,0.067-0.312,0.101
	c-2.795,0.875-6.04,1.559-9.573,2.038c-1.138-4.971-2.827-9.175-4.886-12.181c4.596,1.274,8.807,3.718,12.27,7.182
	C52.703,13.105,53.537,14.062,54.3,15.062z M24.47,5.02c-2.058,3.006-3.748,7.21-4.884,12.181c-3.534-0.479-6.779-1.163-9.573-2.038
	c-0.106-0.033-0.208-0.066-0.312-0.101c0.763-1,1.596-1.956,2.5-2.86C15.664,8.737,19.876,6.294,24.47,5.02z M9.701,48.938
	c0.104-0.033,0.205-0.066,0.312-0.101c2.794-0.875,6.039-1.56,9.573-2.038c1.136,4.971,2.826,9.176,4.884,12.182
	c-4.594-1.273-8.806-3.72-12.269-7.183C11.297,50.895,10.464,49.938,9.701,48.938z M39.529,58.98
	c2.059-3.006,3.748-7.211,4.886-12.182c3.533,0.479,6.778,1.163,9.573,2.038c0.104,0.033,0.207,0.065,0.312,0.101
	c-0.763,1-1.597,1.957-2.501,2.86C48.336,55.262,44.125,57.707,39.529,58.98z"/>
</svg>
