<svg xmlns="http://www.w3.org/2000/svg" viewBox="0 0 256 256" fill="#797c7c">
<path d="M128,16c29.9,0,58,11.7,79.2,32.8C228.3,70,240,98.1,240,128s-11.7,58-32.8,79.2C186,228.3,157.9,240,128,240
	s-58-11.7-79.2-32.8C27.7,186,16,157.9,16,128s11.7-58,32.8-79.2C70,27.7,98.1,16,128,16 M128,0C57.3,0,0,57.3,0,128
	c0,70.7,57.3,128,128,128c70.7,0,128-57.3,128-128C256,57.3,198.7,0,128,0L128,0z M100,64c-6.6,0-12,10.7-12,24s5.4,24,12,24
	s12-10.7,12-24S106.6,64,100,64z M156,64c-6.6,0-12,10.7-12,24s5.4,24,12,24s12-10.7,12-24S162.6,64,156,64z M128,208
	c28.5,0,54.4-16.9,65.9-43c1.8-4,0-8.8-4.1-10.5c-4-1.8-8.8,0-10.5,4.1c-9,20.3-29.1,33.4-51.2,33.4c-22.2,0-42.3-13.1-51.2-33.4
	c-1.8-4-6.5-5.9-10.5-4.1c-4,1.8-5.9,6.5-4.1,10.5C73.6,191.1,99.5,208,128,208L128,208z"/>
</svg>
