<?xml version="1.0" encoding="utf-8"?>
<!-- Generator: Adobe Illustrator 17.0.0, SVG Export Plug-In . SVG Version: 6.00 Build 0)  -->
<!DOCTYPE svg PUBLIC "-//W3C//DTD SVG 1.1//EN" "http://www.w3.org/Graphics/SVG/1.1/DTD/svg11.dtd">
<svg version="1.1" id="Layer_1" xmlns="http://www.w3.org/2000/svg" xmlns:xlink="http://www.w3.org/1999/xlink" x="0px" y="0px"
	 width="704px" height="528px" viewBox="-31.5 -23.5 704 528" enable-background="new -31.5 -23.5 704 528" xml:space="preserve">
<path opacity="0.2" fill="#FFFFFF" enable-background="new    " d="M608.493,156.5v40c0,2.209-1.791,4-4,4h-56c-2.209,0-4-1.791-4-4
	v-40c0-2.209,1.791-4,4-4h9.528l2.895-5.789c0.677-1.356,2.062-2.211,3.577-2.211h24c1.516,0,2.9,0.855,3.578,2.211l2.895,5.789
	h9.527C606.702,152.5,608.493,154.291,608.493,156.5z M576.493,192.5c8.836,0,16-7.163,16-16c0-8.836-7.164-16-16-16
	s-16,7.164-16,16C560.493,185.337,567.657,192.5,576.493,192.5z"/>
<path opacity="0.2" fill="#FFFFFF" enable-background="new    " d="M596.493,16.5h-40c-2.209,0-4,1.791-4,4v56
	c0,1.537,0.881,2.939,2.268,3.605c0.55,0.264,1.142,0.395,1.732,0.395c0.892,0,1.775-0.299,2.5-0.877l17.5-14l17.5,14
	c0.725,0.578,1.607,0.877,2.5,0.877c0.59,0,1.182-0.131,1.732-0.395c1.385-0.666,2.268-2.068,2.268-3.605v-56
	C600.493,18.291,598.702,16.5,596.493,16.5z"/>
<path opacity="0.2" fill="#FFFFFF" enable-background="new    " d="M296.493,420.5h48v40c0,2.209-1.791,4-4,4h-40
	c-2.209,0-4-1.791-4-4V420.5z M348.493,412.5c0-2.209-1.791-4-4-4h-12v-4c0-2.209-1.791-4-4-4h-16c-2.209,0-4,1.791-4,4v4h-12
	c-2.209,0-4,1.791-4,4v4h56V412.5z"/>
<path opacity="0.2" fill="#FFFFFF" enable-background="new    " d="M64.493,280.5c-12.008,0-23.086,8.932-32,24
	c8.914,15.066,19.992,24,32,24c12.006,0,23.086-8.934,32-24C87.579,289.432,76.499,280.5,64.493,280.5z M64.49,320.5
	c-8.837,0-16-7.164-16-16s7.163-16,16-16c0.651,0,1.293,0.043,1.923,0.119c-1.203,1.652-1.923,3.68-1.923,5.881
	c0,5.523,4.477,10,10,10c2.201,0,4.229-0.721,5.88-1.925c0.076,0.632,0.12,1.272,0.12,1.925C80.49,313.336,73.327,320.5,64.49,320.5
	z"/>
<path opacity="0.2" fill="#FFFFFF" enable-background="new    " d="M446.493,416.5v40c-2-2-6-6-15-6
	c-5.809,0-10.242,1.189-12.367,1.897c-0.207,0.07-0.421,0.103-0.633,0.103c-0.414,0-0.824-0.129-1.17-0.377
	c-0.521-0.376-0.83-0.98-0.83-1.623v-36c0-0.559,0.232-1.092,0.645-1.47c2.797-2.583,8.972-4.53,14.355-4.53
	c7.371,0,11.657,4.008,13.96,6.16c0.138,0.13,0.271,0.254,0.396,0.37C446.259,415.408,446.493,415.941,446.493,416.5z
	 M450.493,416.5v40c2-2,6-6,15-6c5.808,0,10.241,1.189,12.367,1.897c0.207,0.066,0.42,0.103,0.633,0.103
	c0.414,0,0.824-0.129,1.168-0.377c0.522-0.376,0.832-0.98,0.832-1.623v-36c0-0.559-0.234-1.092-0.645-1.47
	c-2.801-2.583-8.974-4.53-14.355-4.53c-7.372,0-11.657,4.008-13.96,6.16c-0.139,0.13-0.271,0.254-0.396,0.37
	C450.726,415.408,450.493,415.941,450.493,416.5z"/>
<path opacity="0.2" fill="#FFFFFF" enable-background="new    " d="M603.514,413.479c-3.211-3.21-7.48-4.979-12.021-4.979
	s-8.81,1.769-12.02,4.979c-1.201,1.2-2.199,2.552-2.98,4.008c-0.781-1.456-1.778-2.808-2.979-4.008
	c-3.211-3.21-7.48-4.979-12.021-4.979s-8.811,1.769-12.021,4.979c-3.21,3.211-4.979,7.48-4.979,12.021s1.769,8.811,4.979,12.021
	l24.092,25.699c0.757,0.814,1.816,1.277,2.932,1.277s2.175-0.463,2.932-1.277l24.093-25.699c3.211-3.213,4.979-7.479,4.979-12.021
	S606.725,416.689,603.514,413.479z"/>
<path opacity="0.2" fill="#FFFFFF" enable-background="new    " d="M96.493,154.5v22c0,1.061-0.422,2.078-1.172,2.828l-28,28
	c-0.781,0.781-1.805,1.172-2.828,1.172c-1.023,0-2.049-0.391-2.828-1.172l-28-28c-1.562-1.562-1.562-4.094,0-5.656l28-28
	c0.75-0.75,1.767-1.172,2.828-1.172h22C92.007,144.5,96.493,148.986,96.493,154.5z M82.493,154.5c0,2.209,1.791,4,4,4s4-1.791,4-4
	s-1.791-4-4-4S82.493,152.291,82.493,154.5z"/>
<path opacity="0.2" fill="#FFFFFF" enable-background="new    " d="M40.493,36.5v-8c0-2.209,1.791-4,4-4h4v-4c0-2.209,1.791-4,4-4
	s4,1.791,4,4v4h24v-4c0-2.209,1.791-4,4-4s4,1.791,4,4v4h4c2.209,0,4,1.791,4,4v8H40.493z M40.493,40.5v36c0,2.209,1.791,4,4,4h48
	c2.209,0,4-1.791,4-4v-36H40.493z"/>
<path opacity="0.2" fill="#FFFFFF" enable-background="new    " d="M590.688,301.449l16.283-12.865
	c0.967-0.764,1.522-1.865,1.522-3.084c0-0.502-0.08-1.012-0.271-1.5c-2.704-6.986-9.296-11.5-16.781-11.5
	c-9.859,0-17.894,7.971-17.996,17.805L560.58,274.02c-0.775-0.979-1.889-1.52-3.084-1.52c-0.484,0-1.029,0.088-1.5,0.27
	c-6.986,2.707-11.5,9.297-11.5,16.785c0,9.86,7.969,17.891,17.805,17.996l-16.282,12.865c-0.97,0.764-1.524,1.92-1.524,3.084
	c0,0.5,0.081,1.012,0.271,1.5c2.706,6.986,9.296,11.5,16.782,11.5c9.861,0,17.894-7.97,17.996-17.805l12.865,16.285
	c0.775,0.979,1.826,1.52,3.084,1.52c0.484,0,1.029-0.088,1.5-0.27c6.986-2.707,11.5-9.3,11.5-16.785
	C608.493,309.585,600.523,301.555,590.688,301.449z M576.493,312.5c-4.418,0-8-3.582-8-8s3.582-8,8-8s8,3.582,8,8
	S580.911,312.5,576.493,312.5z"/>
<path opacity="0.2" fill="#FFFFFF" enable-background="new    " d="M224.493,450.5c0.001,0.382-0.108,0.769-0.336,1.109
	c-0.385,0.578-1.02,0.891-1.666,0.891c-0.381,0-0.767-0.108-1.107-0.336l-10.368-6.912c-3.148,11.682-10.868,15.248-18.523,15.248
	s-15.374-3.566-18.522-15.248l-10.368,6.912c-0.341,0.228-0.727,0.336-1.107,0.336c-0.646,0-1.281-0.312-1.666-0.891
	c-0.229-0.34-0.337-0.727-0.337-1.109c0.001-0.646,0.313-1.278,0.891-1.664l11.711-7.807c-0.217-1.417-0.382-2.919-0.481-4.529
	h-10.121c-1.104,0-2-0.896-2-2s0.896-2,2-2h10c0-1.586,0.057-3.082,0.158-4.506l-10.791-3.597c-0.838-0.279-1.367-1.06-1.367-1.897
	c0-0.209,0.033-0.422,0.103-0.632c0.28-0.839,1.06-1.367,1.897-1.368c0.21,0,0.423,0.033,0.633,0.103l9.977,3.326
	c0.186-1.208,0.408-2.354,0.672-3.429h37.438c0.264,1.074,0.486,2.221,0.672,3.429l9.977-3.326c0.21-0.066,0.424-0.103,0.633-0.103
	c0.838-0.001,1.617,0.529,1.897,1.368c0.069,0.21,0.103,0.423,0.103,0.632c0,0.838-0.529,1.618-1.367,1.897l-10.791,3.597
	c0.102,1.424,0.158,2.92,0.158,4.506h10c1.104,0,2,0.896,2,2s-0.896,2-2,2h-10.12c-0.1,1.61-0.265,3.112-0.481,4.529l11.711,7.807
	C224.181,449.222,224.493,449.854,224.493,450.5z M192.493,404.5c-6.895,0-13.843,2.893-17.455,12h34.91
	C206.336,407.393,199.388,404.5,192.493,404.5z"/>
<path opacity="0.2" fill="#FFFFFF" enable-background="new    " d="M340.493,176.5c0-6.543-3.143-12.352-8-16v-12c0-2.2-1.801-4-4-4
	h-16c-2.2,0-4,1.8-4,4v12c-4.857,3.648-8,9.457-8,16s3.143,12.352,8,16v12c0,2.2,1.8,4,4,4h16c2.199,0,4-1.8,4-4v-12
	C337.35,188.852,340.493,183.043,340.493,176.5z M304.493,176.5c0-8.822,7.178-16,16-16s16,7.178,16,16s-7.178,16-16,16
	S304.493,185.322,304.493,176.5z M326.491,182.5c-0.381,0-0.768-0.108-1.107-0.336l-6-4c-0.557-0.371-0.891-0.995-0.891-1.664v-10
	c0-1.104,0.896-2,2-2s2,0.896,2,2v8.93l5.109,3.406c0.918,0.613,1.168,1.854,0.555,2.773
	C327.772,182.188,327.138,182.5,326.491,182.5z"/>
<path opacity="0.2" fill="#FFFFFF" enable-background="new    " d="M342.817,312.518c1.074-2.455,1.676-5.166,1.676-8.018
	c0-11.046-8.954-20-20-20s-20,8.954-20,20c0,0.049,0.004,0.098,0.004,0.146c-0.654-0.094-1.323-0.146-2.004-0.146
	c-7.732,0-14,6.27-14,14c0,7.732,6.268,14,14,14h40c5.523,0,10-4.477,10-10C352.493,317.087,348.188,312.689,342.817,312.518z"/>
<path opacity="0.2" fill="#FFFFFF" enable-background="new    " d="M472.493,170.5c0,0,5.562-1.938,7.999-6
	c-3.188,0.438-6.833-0.333-7.999-1.999V152.5c0-2.209-1.791-4-4-4h-31.874c0,0,4-1.334,3.625-2.5
	c-0.479-1.488-4.834,0.375-8.417,1.875c0.958-1.042,1.708-2.084,1.583-3.375c-2.534,0.643-4.683,2.852-5.671,4.072
	c-0.014,0.004-0.029,0.004-0.041,0.007c0.297-0.577,1.029-2.059,0.837-2.829c-1.583,0.833-4.042,2.75-4.042,6.75v38c0,4-4,6-8,2
	c2,6,6,8,12,8h6.837l-0.814,5.717c-0.155,1.094,0.604,2.106,1.694,2.263c0.1,0.014,0.191,0.021,0.286,0.021
	c0.979,0,1.835-0.721,1.979-1.718l0.896-6.282h13.562l1.619,6.484c0.229,0.909,1.041,1.516,1.938,1.516
	c0.16,0,0.323-0.02,0.486-0.061c1.068-0.268,1.723-1.354,1.455-2.425l-1.376-5.515h11.438c2.209,0,4-1.791,4-4v-20
	c2.167,0,5.334-0.584,8-4C477.327,172.333,472.493,170.5,472.493,170.5z M448.493,164.5c0-2.209,1.791-4,4-4s4,1.791,4,4
	s-1.791,4-4,4S448.493,166.709,448.493,164.5z"/>
<path opacity="0.2" fill="#FFFFFF" enable-background="new    " d="M471.321,318.844c0.782,0.782,1.172,1.814,1.172,2.834
	c0,1.021-0.392,2.043-1.172,2.822l-2.828,2.828c-0.787,0.787-1.787,1.172-2.854,1.172c-1.018,0-2.028-0.396-2.807-1.172
	l-10.857-12.111l6.778-7.64L471.321,318.844z M478.602,273.561c-0.707-0.707-1.781-1.061-2.828-1.061
	c-1.062,0-2.121,0.354-2.828,1.061L448.3,298.207l-4.358-3.911c1.312-3.759,1.203-10.108-1.414-12.729
	c-4.242-4.24-13.788-8.838-13.788-8.838c-0.476-0.244-1.062-0.354-1.414,0c-0.354,0.354-0.276,0.974-0.001,1.414l9.9,11.312
	c0.381,0.49,0.353,1.062-0.354,1.77c-0.707,0.709-1.259,0.75-1.768,0.354c-0.755-0.653-12.374-10.253-12.374-10.253
	c-0.42-0.316-1.062-0.354-1.414,0c-0.354,0.354-0.316,0.992,0,1.412c0,0,9.6,11.621,10.253,12.375
	c0.396,0.51,0.354,1.062-0.354,1.769s-1.273,0.735-1.768,0.354l-11.314-9.897c-0.439-0.274-1.061-0.354-1.414,0
	s-0.242,0.938,0,1.414c0,0,4.6,9.547,8.84,13.789c2.617,2.617,8.972,2.729,12.729,1.414l3.91,4.36l-14.532,14.533
	c-0.779,0.779-1.171,1.805-1.171,2.827c0,1.023,0.392,2.047,1.171,2.827l2.829,2.828c0.78,0.781,1.805,1.172,2.828,1.172
	s2.048-0.391,2.828-1.172l22.367-25.191c0,0,9.364,1.943,15.021-3.714c4.278-4.276,6.953-11.729,6.953-19.077
	C480.493,276.969,479.982,274.939,478.602,273.561z"/>
<path opacity="0.2" fill="#FFFFFF" enable-background="new    " d="M224.493,174.5v4c0,1.002-0.742,1.85-1.736,1.982l-8.88,1.184
	c-0.543,2.256-1.43,4.379-2.608,6.304l5.44,7.114c0.608,0.796,0.534,1.92-0.175,2.629l-2.828,2.828
	c-0.388,0.389-0.9,0.586-1.414,0.586c-0.427,0-0.854-0.135-1.215-0.41l-7.115-5.441c-1.925,1.179-4.047,2.065-6.303,2.608
	l-1.184,8.88c-0.132,0.994-0.98,1.736-1.982,1.736h-4c-1.002,0-1.85-0.742-1.982-1.736l-1.184-8.88
	c-2.256-0.543-4.379-1.43-6.304-2.608l-7.114,5.44c-0.36,0.275-0.788,0.411-1.215,0.411c-0.514,0-1.026-0.197-1.414-0.586
	l-2.828-2.828c-0.709-0.709-0.784-1.832-0.176-2.629l5.441-7.115c-1.179-1.925-2.065-4.047-2.608-6.303l-8.88-1.184
	c-0.994-0.132-1.736-0.98-1.736-1.982v-4c0-1.002,0.742-1.85,1.736-1.982l8.88-1.184c0.543-2.256,1.43-4.378,2.608-6.303
	l-5.441-7.115c-0.608-0.797-0.533-1.92,0.176-2.629l2.828-2.828c0.388-0.389,0.9-0.586,1.414-0.586c0.427,0,0.854,0.135,1.215,0.41
	l7.115,5.441c1.925-1.179,4.047-2.065,6.303-2.608l1.184-8.88c0.133-0.994,0.98-1.736,1.982-1.736h4c1.002,0,1.85,0.742,1.982,1.736
	l1.184,8.88c2.256,0.543,4.378,1.43,6.303,2.608l7.115-5.441c0.36-0.275,0.788-0.41,1.215-0.41c0.514,0,1.026,0.197,1.414,0.586
	l2.828,2.828c0.709,0.709,0.784,1.833,0.176,2.629l-5.441,7.115c1.179,1.925,2.065,4.047,2.608,6.303l8.88,1.184
	C223.751,172.65,224.493,173.498,224.493,174.5z M192.493,188.5c6.627,0,12-5.373,12-12s-5.373-12-12-12s-12,5.373-12,12
	S185.866,188.5,192.493,188.5z"/>
<path opacity="0.2" fill="#FFFFFF" enable-background="new    " d="M223.986,29.835l-10.079,10.079
	c-0.608,0.609-1.538,0.76-2.309,0.375c-2.206-1.104-4.378-2.724-6.274-4.62s-3.517-4.068-4.62-6.274
	c-0.385-0.77-0.233-1.7,0.375-2.309l10.079-10.079c-1.525-0.364-3.094-0.507-4.664-0.507c-4.709,0-9.405,1.948-12.921,5.465
	c-5.547,5.546-5.469,12.565-1.737,18.733c0,0-23,20.145-28.999,26.145c-1.448,1.448-2.344,3.448-2.344,5.657
	s0.896,4.209,2.343,5.657c1.448,1.447,3.448,2.343,5.657,2.343s4.209-0.896,5.657-2.344c6-5.999,26.145-28.999,26.145-28.999
	c6.168,3.731,13.188,3.81,18.734-1.737c3.516-3.516,5.464-8.212,5.464-12.92C224.493,32.93,224.35,31.36,223.986,29.835z"/>
<path opacity="0.2" fill="#FFFFFF" enable-background="new    " d="M480.493,24.5c-4-2-10-4-14-4
	c-2.359,0-11.679,9.744-20.567,20.198l-3.372-3.102c1.23-2.082,1.939-4.507,1.939-7.096c0-7.72-6.28-14-14-14
	c-7.721,0-14,6.28-14,14s6.279,14,14,14c1.798,0,3.516-0.344,5.096-0.965c1.212,1.584,2.521,3.252,3.896,4.964
	c-1.373,1.712-2.685,3.381-3.896,4.965c-1.58-0.62-3.299-0.964-5.096-0.964c-7.721,0-14,6.28-14,14s6.279,14,14,14
	c7.72,0,14-6.28,14-14c0-2.589-0.709-5.014-1.939-7.097l3.372-3.102h0.001l8.479-7.801L480.493,24.5z M430.493,36.5
	c-3.309,0-6-2.691-6-6s2.691-6,6-6s6,2.691,6,6S433.802,36.5,430.493,36.5z M430.493,72.5c-3.309,0-6-2.691-6-6s2.691-6,6-6
	s6,2.691,6,6S433.802,72.5,430.493,72.5z M445.493,51.5c-1.657,0-3-1.342-3-3s1.343-3,3-3c1.656,0,3,1.342,3,3
	S447.149,51.5,445.493,51.5z M457.36,51.218L480.493,72.5c-4,2-10,4-14,4c-2.129,0-9.925-7.934-17.957-17.164L457.36,51.218z"/>
<path opacity="0.2" fill="#FFFFFF" enable-background="new    " d="M222.493,276.5h-40c-1.101,0-2,0.9-2,2v35.35
	c-1.819-0.863-3.853-1.35-6-1.35c-7.732,0-14,6.27-14,14c0,7.732,6.268,14,14,14c7.731,0,14-6.268,14-14v-34h28v21.35
	c-1.82-0.863-3.854-1.35-6-1.35c-7.732,0-14,6.27-14,14c0,7.732,6.268,14,14,14c7.73,0,14-6.268,14-14v-48
	C224.493,277.4,223.593,276.5,222.493,276.5z"/>
<path opacity="0.2" fill="#FFFFFF" enable-background="new    " d="M96.493,412.5v28c0,6.617-5.383,12-12,12v8c0,2.209-1.791,4-4,4
	h-32c-2.209,0-4-1.791-4-4v-8c-6.617,0-12-5.383-12-12v-28c0-6.617,5.383-12,12-12h40C91.11,400.5,96.493,405.883,96.493,412.5z
	 M78.493,444.5c5.523,0,10-4.477,10-10s-4.477-10-10-10s-10,4.477-10,10S72.97,444.5,78.493,444.5z M50.493,444.5
	c5.523,0,10-4.477,10-10s-4.477-10-10-10s-10,4.477-10,10S44.97,444.5,50.493,444.5z"/>
<path opacity="0.2" fill="#FFFFFF" enable-background="new    " d="M344.993,41c0,17.456-20.309,37.964-21.171,38.829
	c-0.781,0.78-1.806,1.171-2.829,1.171s-2.047-0.391-2.828-1.171c-0.864-0.865-21.172-21.373-21.172-38.829c0-13.233,10.767-24,24-24
	C334.225,17,344.993,27.767,344.993,41z M320.993,53c6.628,0,12-5.372,12-12c0-6.627-5.372-12-12-12c-6.627,0-12,5.373-12,12
	C308.993,47.628,314.366,53,320.993,53z"/>
</svg>
