<?xml version="1.0" encoding="utf-8"?>
<!-- Generator: Adobe Illustrator 16.2.1, SVG Export Plug-In . SVG Version: 6.00 Build 0)  -->
<!DOCTYPE svg PUBLIC "-//W3C//DTD SVG 1.1//EN" "http://www.w3.org/Graphics/SVG/1.1/DTD/svg11.dtd">
<svg version="1.1" id="Layer_1" xmlns="http://www.w3.org/2000/svg" xmlns:xlink="http://www.w3.org/1999/xlink" x="0px" y="0px"
	 width="576px" height="448px" viewBox="0 0 576 448" enable-background="new 0 0 576 448" xml:space="preserve">
<path fill="#444444" d="M576,140v40c0,2.209-1.791,4-4,4h-56c-2.209,0-4-1.791-4-4v-40c0-2.209,1.791-4,4-4h9.528l2.895-5.789
	C529.1,128.855,530.485,128,532,128h24c1.516,0,2.9,0.855,3.578,2.211l2.895,5.789H572C574.209,136,576,137.791,576,140z M544,176
	c8.836,0,16-7.163,16-16c0-8.836-7.164-16-16-16s-16,7.164-16,16C528,168.837,535.164,176,544,176z"/>
<path fill="#444444" d="M564,0h-40c-2.209,0-4,1.791-4,4v56c0,1.537,0.881,2.939,2.268,3.605C522.818,63.869,523.41,64,524,64
	c0.892,0,1.775-0.299,2.5-0.877l17.5-14l17.5,14C562.225,63.701,563.107,64,564,64c0.59,0,1.182-0.131,1.732-0.395
	C567.117,62.939,568,61.537,568,60V4C568,1.791,566.209,0,564,0z"/>
<path fill="#444444" d="M264,404h48v40c0,2.209-1.791,4-4,4h-40c-2.209,0-4-1.791-4-4V404z M316,396c0-2.209-1.791-4-4-4h-12v-4
	c0-2.209-1.791-4-4-4h-16c-2.209,0-4,1.791-4,4v4h-12c-2.209,0-4,1.791-4,4v4h56V396z"/>
<path fill="#444444" d="M32,264c-12.008,0-23.086,8.932-32,24c8.914,15.066,19.992,24,32,24c12.006,0,23.086-8.934,32-24
	C55.086,272.932,44.006,264,32,264z M31.997,304c-8.837,0-16-7.164-16-16s7.163-16,16-16c0.651,0,1.293,0.043,1.923,0.119
	c-1.203,1.652-1.923,3.68-1.923,5.881c0,5.523,4.477,10,10,10c2.201,0,4.229-0.721,5.88-1.925c0.076,0.632,0.12,1.272,0.12,1.925
	C47.997,296.836,40.834,304,31.997,304z"/>
<path fill="#444444" d="M414,400v40c-2-2-6-6-15-6c-5.809,0-10.242,1.189-12.367,1.897C386.426,435.967,386.212,436,386,436
	c-0.414,0-0.824-0.129-1.17-0.377c-0.521-0.376-0.83-0.98-0.83-1.623v-36c0-0.559,0.232-1.092,0.645-1.47
	c2.797-2.583,8.972-4.53,14.355-4.53c7.371,0,11.657,4.008,13.96,6.16c0.138,0.13,0.271,0.254,0.396,0.37
	C413.766,398.908,414,399.441,414,400z M418,400v40c2-2,6-6,15-6c5.808,0,10.241,1.189,12.367,1.897
	c0.207,0.066,0.42,0.103,0.633,0.103c0.414,0,0.824-0.129,1.168-0.377c0.522-0.376,0.832-0.98,0.832-1.623v-36
	c0-0.559-0.234-1.092-0.645-1.47c-2.801-2.583-8.974-4.53-14.355-4.53c-7.372,0-11.657,4.008-13.96,6.16
	c-0.139,0.13-0.271,0.254-0.396,0.37C418.233,398.908,418,399.441,418,400z"/>
<path fill="#444444" d="M571.021,396.979C567.81,393.769,563.541,392,559,392s-8.81,1.769-12.02,4.979
	c-1.201,1.2-2.199,2.552-2.98,4.008c-0.781-1.456-1.778-2.808-2.979-4.008C537.81,393.769,533.541,392,529,392
	s-8.811,1.769-12.021,4.979C513.769,400.19,512,404.459,512,409s1.769,8.811,4.979,12.021l24.092,25.699
	c0.757,0.814,1.816,1.277,2.932,1.277s2.175-0.463,2.932-1.277l24.093-25.699c3.211-3.213,4.979-7.479,4.979-12.021
	S574.232,400.189,571.021,396.979z"/>
<path fill="#444444" d="M64,138v22c0,1.061-0.422,2.078-1.172,2.828l-28,28C34.047,191.609,33.023,192,32,192
	s-2.049-0.391-2.828-1.172l-28-28c-1.562-1.562-1.562-4.094,0-5.656l28-28C29.922,128.422,30.939,128,32,128h22
	C59.514,128,64,132.486,64,138z M50,138c0,2.209,1.791,4,4,4s4-1.791,4-4s-1.791-4-4-4S50,135.791,50,138z"/>
<path fill="#444444" d="M8,20v-8c0-2.209,1.791-4,4-4h4V4c0-2.209,1.791-4,4-4s4,1.791,4,4v4h24V4c0-2.209,1.791-4,4-4s4,1.791,4,4
	v4h4c2.209,0,4,1.791,4,4v8H8z M8,24v36c0,2.209,1.791,4,4,4h48c2.209,0,4-1.791,4-4V24H8z"/>
<path fill="#444444" d="M558.195,284.949l16.283-12.865C575.445,271.32,576,270.219,576,269c0-0.502-0.08-1.012-0.271-1.5
	c-2.704-6.986-9.296-11.5-16.781-11.5c-9.859,0-17.894,7.971-17.996,17.805l-12.865-16.285c-0.775-0.979-1.889-1.52-3.084-1.52
	c-0.484,0-1.029,0.088-1.5,0.27c-6.986,2.707-11.5,9.297-11.5,16.785c0,9.86,7.969,17.891,17.805,17.996l-16.282,12.865
	c-0.97,0.764-1.524,1.92-1.524,3.084c0,0.5,0.081,1.012,0.271,1.5c2.706,6.986,9.296,11.5,16.782,11.5
	c9.861,0,17.894-7.97,17.996-17.805l12.865,16.285c0.775,0.979,1.826,1.52,3.084,1.52c0.484,0,1.029-0.088,1.5-0.27
	c6.986-2.707,11.5-9.3,11.5-16.785C576,293.085,568.03,285.055,558.195,284.949z M544,296c-4.418,0-8-3.582-8-8s3.582-8,8-8
	s8,3.582,8,8S548.418,296,544,296z"/>
<path fill="#444444" d="M192,434c0.001,0.382-0.108,0.769-0.336,1.109c-0.385,0.578-1.02,0.891-1.666,0.891
	c-0.381,0-0.767-0.108-1.107-0.336l-10.368-6.912C175.375,440.434,167.655,444,160,444s-15.374-3.566-18.522-15.248l-10.368,6.912
	c-0.341,0.228-0.727,0.336-1.107,0.336c-0.646,0-1.281-0.312-1.666-0.891C128.108,434.769,128,434.382,128,434
	c0.001-0.646,0.313-1.278,0.891-1.664l11.711-7.807c-0.217-1.417-0.382-2.919-0.481-4.529H130c-1.104,0-2-0.896-2-2s0.896-2,2-2h10
	c0-1.586,0.057-3.082,0.158-4.506l-10.791-3.597C128.529,407.618,128,406.837,128,406c0-0.209,0.033-0.422,0.103-0.632
	c0.28-0.839,1.06-1.367,1.897-1.368c0.21,0,0.423,0.033,0.633,0.103l9.977,3.326c0.186-1.208,0.408-2.354,0.672-3.429h37.438
	c0.264,1.074,0.486,2.221,0.672,3.429l9.977-3.326c0.21-0.066,0.424-0.103,0.633-0.103c0.838-0.001,1.617,0.529,1.897,1.368
	c0.069,0.21,0.103,0.423,0.103,0.632c0,0.838-0.529,1.618-1.367,1.897l-10.791,3.597c0.102,1.424,0.158,2.92,0.158,4.506h10
	c1.104,0,2,0.896,2,2s-0.896,2-2,2h-10.12c-0.1,1.61-0.265,3.112-0.481,4.529l11.711,7.807C191.688,432.722,192,433.354,192,434z
	 M160,388c-6.895,0-13.843,2.893-17.455,12h34.91C173.843,390.893,166.895,388,160,388z"/>
<path fill="#444444" d="M308,160c0-6.543-3.143-12.352-8-16v-12c0-2.2-1.801-4-4-4h-16c-2.2,0-4,1.8-4,4v12
	c-4.857,3.648-8,9.457-8,16s3.143,12.352,8,16v12c0,2.2,1.8,4,4,4h16c2.199,0,4-1.8,4-4v-12C304.857,172.352,308,166.543,308,160z
	 M272,160c0-8.822,7.178-16,16-16c8.822,0,16,7.178,16,16s-7.178,16-16,16C279.178,176,272,168.822,272,160z M293.998,166
	c-0.381,0-0.768-0.108-1.107-0.336l-6-4C286.334,161.293,286,160.669,286,160v-10c0-1.104,0.896-2,2-2c1.104,0,2,0.896,2,2v8.93
	l5.109,3.406c0.918,0.613,1.168,1.854,0.555,2.773C295.279,165.688,294.645,166,293.998,166z"/>
<path fill="#444444" d="M310.324,296.018c1.074-2.455,1.676-5.166,1.676-8.018c0-11.046-8.954-20-20-20s-20,8.954-20,20
	c0,0.049,0.004,0.098,0.004,0.146C271.35,288.052,270.681,288,270,288c-7.732,0-14,6.27-14,14c0,7.732,6.268,14,14,14h40
	c5.523,0,10-4.477,10-10C320,300.587,315.695,296.189,310.324,296.018z"/>
<path fill="#444444" d="M440,154c0,0,5.562-1.938,7.999-6c-3.188,0.438-6.833-0.333-7.999-1.999V136c0-2.209-1.791-4-4-4h-31.874
	c0,0,4-1.334,3.625-2.5c-0.479-1.488-4.834,0.375-8.417,1.875c0.958-1.042,1.708-2.084,1.583-3.375
	c-2.534,0.643-4.683,2.852-5.671,4.072c-0.014,0.004-0.029,0.004-0.041,0.007c0.297-0.577,1.029-2.059,0.837-2.829
	C394.459,130.083,392,132,392,136v38c0,4-4,6-8,2c2,6,6,8,12,8h6.837l-0.814,5.717c-0.155,1.094,0.604,2.106,1.694,2.263
	c0.1,0.014,0.191,0.021,0.286,0.021c0.979,0,1.835-0.721,1.979-1.718l0.896-6.282h13.562l1.619,6.484
	c0.229,0.909,1.041,1.516,1.938,1.516c0.16,0,0.323-0.02,0.486-0.061c1.068-0.268,1.723-1.354,1.455-2.425L424.562,184H436
	c2.209,0,4-1.791,4-4v-20c2.167,0,5.334-0.584,8-4C444.834,155.833,440,154,440,154z M416,148c0-2.209,1.791-4,4-4s4,1.791,4,4
	s-1.791,4-4,4S416,150.209,416,148z"/>
<path fill="#444444" d="M438.828,302.344c0.782,0.782,1.172,1.814,1.172,2.834c0,1.021-0.392,2.043-1.172,2.822L436,310.828
	c-0.787,0.787-1.787,1.172-2.854,1.172c-1.018,0-2.028-0.396-2.807-1.172l-10.857-12.111l6.778-7.64L438.828,302.344z
	 M446.109,257.061c-0.707-0.707-1.781-1.061-2.828-1.061c-1.062,0-2.121,0.354-2.828,1.061l-24.646,24.646l-4.358-3.911
	c1.312-3.759,1.203-10.108-1.414-12.729c-4.242-4.24-13.788-8.838-13.788-8.838c-0.476-0.244-1.062-0.354-1.414,0
	c-0.354,0.354-0.276,0.974-0.001,1.414l9.9,11.312c0.381,0.49,0.353,1.062-0.354,1.77c-0.707,0.709-1.259,0.75-1.768,0.354
	c-0.755-0.653-12.374-10.253-12.374-10.253c-0.42-0.316-1.062-0.354-1.414,0c-0.354,0.354-0.316,0.992,0,1.412
	c0,0,9.6,11.621,10.253,12.375c0.396,0.51,0.354,1.062-0.354,1.769s-1.273,0.735-1.768,0.354l-11.314-9.897
	c-0.439-0.274-1.061-0.354-1.414,0c-0.353,0.354-0.242,0.938,0,1.414c0,0,4.6,9.547,8.84,13.789
	c2.617,2.617,8.972,2.729,12.729,1.414l3.91,4.36l-14.532,14.533c-0.779,0.779-1.171,1.805-1.171,2.827
	c0,1.023,0.392,2.047,1.171,2.827l2.829,2.828c0.78,0.781,1.805,1.172,2.828,1.172s2.048-0.391,2.828-1.172l22.367-25.191
	c0,0,9.364,1.943,15.021-3.714c4.278-4.276,6.953-11.729,6.953-19.077C448,260.469,447.489,258.439,446.109,257.061z"/>
<path fill="#444444" d="M192,158v4c0,1.002-0.742,1.85-1.736,1.982l-8.88,1.184c-0.543,2.256-1.43,4.379-2.608,6.304l5.44,7.114
	c0.608,0.796,0.534,1.92-0.175,2.629l-2.828,2.828c-0.388,0.389-0.9,0.586-1.414,0.586c-0.427,0-0.854-0.135-1.215-0.41
	l-7.115-5.441c-1.925,1.179-4.047,2.065-6.303,2.608l-1.184,8.88C163.85,191.258,163.002,192,162,192h-4
	c-1.002,0-1.85-0.742-1.982-1.736l-1.184-8.88c-2.256-0.543-4.379-1.43-6.304-2.608l-7.114,5.44
	c-0.36,0.275-0.788,0.411-1.215,0.411c-0.514,0-1.026-0.197-1.414-0.586l-2.828-2.828c-0.709-0.709-0.784-1.832-0.176-2.629
	l5.441-7.115c-1.179-1.925-2.065-4.047-2.608-6.303l-8.88-1.184C128.742,163.85,128,163.002,128,162v-4
	c0-1.002,0.742-1.85,1.736-1.982l8.88-1.184c0.543-2.256,1.43-4.378,2.608-6.303l-5.441-7.115c-0.608-0.797-0.533-1.92,0.176-2.629
	l2.828-2.828c0.388-0.389,0.9-0.586,1.414-0.586c0.427,0,0.854,0.135,1.215,0.41l7.115,5.441c1.925-1.179,4.047-2.065,6.303-2.608
	l1.184-8.88c0.133-0.994,0.98-1.736,1.982-1.736h4c1.002,0,1.85,0.742,1.982,1.736l1.184,8.88c2.256,0.543,4.378,1.43,6.303,2.608
	l7.115-5.441c0.36-0.275,0.788-0.41,1.215-0.41c0.514,0,1.026,0.197,1.414,0.586l2.828,2.828c0.709,0.709,0.784,1.833,0.176,2.629
	l-5.441,7.115c1.179,1.925,2.065,4.047,2.608,6.303l8.88,1.184C191.258,156.15,192,156.998,192,158z M160,172
	c6.627,0,12-5.373,12-12s-5.373-12-12-12s-12,5.373-12,12S153.373,172,160,172z"/>
<path fill="#444444" d="M191.493,13.335l-10.079,10.079c-0.608,0.609-1.538,0.76-2.309,0.375c-2.206-1.104-4.378-2.724-6.274-4.62
	s-3.517-4.068-4.62-6.274c-0.385-0.77-0.233-1.7,0.375-2.309l10.079-10.079C177.14,0.143,175.571,0,174.001,0
	c-4.709,0-9.405,1.948-12.921,5.465c-5.547,5.546-5.469,12.565-1.737,18.733c0,0-23,20.145-28.999,26.145
	C128.896,51.791,128,53.791,128,56s0.896,4.209,2.343,5.657C131.791,63.104,133.791,64,136,64s4.209-0.896,5.657-2.344
	c6-5.999,26.145-28.999,26.145-28.999c6.168,3.731,13.188,3.81,18.734-1.737C190.052,27.404,192,22.708,192,18
	C192,16.43,191.857,14.86,191.493,13.335z"/>
<path fill="#444444" d="M448,8c-4-2-10-4-14-4c-2.359,0-11.679,9.744-20.567,20.198l-3.372-3.102C411.291,19.014,412,16.589,412,14
	c0-7.72-6.28-14-14-14c-7.721,0-14,6.28-14,14s6.279,14,14,14c1.798,0,3.516-0.344,5.096-0.965c1.212,1.584,2.521,3.252,3.896,4.964
	c-1.373,1.712-2.685,3.381-3.896,4.965C401.516,36.344,399.797,36,398,36c-7.721,0-14,6.28-14,14s6.279,14,14,14
	c7.72,0,14-6.28,14-14c0-2.589-0.709-5.014-1.939-7.097l3.372-3.102h0.001L421.913,32L448,8z M398,20c-3.309,0-6-2.691-6-6
	s2.691-6,6-6s6,2.691,6,6S401.309,20,398,20z M398,56c-3.309,0-6-2.691-6-6s2.691-6,6-6s6,2.691,6,6S401.309,56,398,56z M413,35
	c-1.657,0-3-1.342-3-3s1.343-3,3-3c1.656,0,3,1.342,3,3S414.656,35,413,35z M424.867,34.718L448,56c-4,2-10,4-14,4
	c-2.129,0-9.925-7.934-17.957-17.164L424.867,34.718z"/>
<path fill="#444444" d="M190,260h-40c-1.101,0-2,0.9-2,2v35.35c-1.819-0.863-3.853-1.35-6-1.35c-7.732,0-14,6.27-14,14
	c0,7.732,6.268,14,14,14c7.731,0,14-6.268,14-14v-34h28v21.35c-1.82-0.863-3.854-1.35-6-1.35c-7.732,0-14,6.27-14,14
	c0,7.732,6.268,14,14,14c7.73,0,14-6.268,14-14v-48C192,260.9,191.1,260,190,260z"/>
<path fill="#444444" d="M64,396v28c0,6.617-5.383,12-12,12v8c0,2.209-1.791,4-4,4H16c-2.209,0-4-1.791-4-4v-8
	c-6.617,0-12-5.383-12-12v-28c0-6.617,5.383-12,12-12h40C58.617,384,64,389.383,64,396z M46,428c5.523,0,10-4.477,10-10
	s-4.477-10-10-10s-10,4.477-10,10S40.477,428,46,428z M18,428c5.523,0,10-4.477,10-10s-4.477-10-10-10s-10,4.477-10,10
	S12.477,428,18,428z"/>
<path fill="#444444" d="M312.5,24.5c0,17.456-20.309,37.964-21.171,38.829c-0.781,0.78-1.806,1.171-2.829,1.171
	c-1.023,0-2.047-0.391-2.828-1.171C284.808,62.464,264.5,41.956,264.5,24.5c0-13.233,10.767-24,24-24
	C301.732,0.5,312.5,11.267,312.5,24.5z M288.5,36.5c6.628,0,12-5.372,12-12c0-6.627-5.372-12-12-12c-6.627,0-12,5.373-12,12
	C276.5,31.128,281.873,36.5,288.5,36.5z"/>
</svg>
