<?xml version="1.0" encoding="utf-8"?>
<!-- Generator: Adobe Illustrator 17.0.0, SVG Export Plug-In . SVG Version: 6.00 Build 0)  -->
<!DOCTYPE svg PUBLIC "-//W3C//DTD SVG 1.1//EN" "http://www.w3.org/Graphics/SVG/1.1/DTD/svg11.dtd">
<svg version="1.1" id="Layer_1" xmlns="http://www.w3.org/2000/svg" xmlns:xlink="http://www.w3.org/1999/xlink" x="0px" y="0px"
	 width="704px" height="528px" viewBox="-63.5 -47.5 704 528" enable-background="new -63.5 -47.5 704 528" xml:space="preserve">
<g opacity="0.2">
	<path d="M57.8,13.998C59.161,12.562,60,10.629,60,8.5c0-4.411-3.589-8-8-8s-8,3.589-8,8c0,2.13,0.84,4.064,2.201,5.499
		c-0.752,0.417-1.451,0.915-2.095,1.478c-1.326-2.276-3.275-4.148-5.613-5.377C40.639,8.264,42,5.538,42,2.5c0-5.514-4.486-10-10-10
		s-10,4.486-10,10c0,3.038,1.362,5.764,3.507,7.6c-2.337,1.229-4.286,3.1-5.612,5.376c-0.643-0.562-1.342-1.061-2.095-1.478
		C19.161,12.562,20,10.629,20,8.5c0-4.411-3.589-8-8-8s-8,3.589-8,8c0,2.13,0.84,4.064,2.201,5.499C2.507,16.047,0,19.985,0,24.5v8
		c0,2.209,1.791,4,4,4v10c0,2.209,1.791,4,4,4h8c2.209,0,4-1.791,4-4v-6.539c0.589,0.341,1.27,0.539,2,0.539v12c0,2.209,1.791,4,4,4
		h12c2.209,0,4-1.791,4-4v-12c0.729,0,1.411-0.198,2-0.539V46.5c0,2.209,1.791,4,4,4h8c2.209,0,4-1.791,4-4v-10c2.209,0,4-1.791,4-4
		v-8C64,19.985,61.494,16.046,57.8,13.998z M12,4.5c2.209,0,4,1.791,4,4s-1.791,4-4,4s-4-1.791-4-4S9.791,4.5,12,4.5z M16,25.5v21
		h-3v-14c0-0.553-0.447-1-1-1s-1,0.447-1,1v14H8v-21c0-0.553-0.447-1-1-1s-1,0.447-1,1v7H4v-8c0-4.418,3.582-8,8-8
		c2.563,0,4.843,1.207,6.307,3.081C18.106,20.522,18,21.499,18,22.5v2h-1C16.447,24.5,16,24.947,16,25.5z M52,4.5
		c2.209,0,4,1.791,4,4s-1.791,4-4,4s-4-1.791-4-4S49.791,4.5,52,4.5z M32-3.5c3.314,0,6,2.687,6,6s-2.686,6-6,6s-6-2.687-6-6
		S28.686-3.5,32-3.5z M42,36.5h-2v-13c0-0.553-0.447-1-1-1s-1,0.447-1,1v29h-5v-16c0-0.553-0.447-1-1-1s-1,0.447-1,1v16h-5v-29
		c0-0.553-0.447-1-1-1s-1,0.447-1,1v13h-2v-14c0-5.522,4.478-10,10-10c5.523,0,10,4.478,10,10V36.5z M60,32.5h-2v-7
		c0-0.553-0.447-1-1-1s-1,0.447-1,1v21h-3v-14c0-0.553-0.447-1-1-1s-1,0.447-1,1v14h-3v-21c0-0.553-0.447-1-1-1h-1v-2
		c0-1.001-0.105-1.978-0.307-2.919C47.157,17.707,49.438,16.5,52,16.5c4.418,0,8,3.582,8,8V32.5z"/>
	<path d="M146,0.5c3.274,0,6.088,1.968,7.325,4.785C155.445,4.774,157.684,4.5,160,4.5c13.255,0,24,8.954,24,20
		c0,6.691-3.943,12.615-10,16.245V48.5h-6v-5.14c-2.502,0.737-5.194,1.14-8,1.14c-2.805,0-5.498-0.402-8-1.14v5.14h-6v-7.755
		c-4.816-2.888-8.297-7.225-9.52-12.245H132v-8h4.48c1.223-5.021,4.703-9.357,9.52-12.245V0.5 M146-3.5c-2.209,0-4,1.791-4,4v5.6
		c-3.863,2.77-6.756,6.352-8.414,10.4H132c-2.209,0-4,1.791-4,4v8c0,2.209,1.791,4,4,4h1.586c1.658,4.049,4.551,7.631,8.414,10.4
		v5.6c0,2.209,1.791,4,4,4h6c2.209,0,4-1.791,4-4v-0.242c1.318,0.161,2.655,0.242,4,0.242c1.346,0,2.682-0.081,4-0.242V48.5
		c0,2.209,1.791,4,4,4h6c2.209,0,4-1.791,4-4v-5.602c6.303-4.532,10-11.266,10-18.398c0-6.551-3.007-12.664-8.469-17.215
		C174.281,2.91,167.345,0.5,160,0.5c-1.6,0-3.192,0.115-4.759,0.346C152.996-1.863,149.628-3.5,146-3.5L146-3.5z M150,17.5
		c0-1.656-1.343-3-3-3c-1.656,0-3,1.344-3,3c0,1.657,1.344,3,3,3C148.657,20.5,150,19.157,150,17.5z M166,10.5h-12v2h12V10.5z"/>
	<path d="M307.553-1.359C301.064-3.129,293.339-3.5,288-3.5c-5.338,0-13.064,0.371-19.553,2.141C258.159,1.447,256,6.639,256,10.5v8
		c0,2.209,1.791,4,4,4h6.528l-6.105,12.211C260.145,35.267,260,35.879,260,36.5v12c0,2.209,1.791,4,4,4h48c2.209,0,4-1.791,4-4v-12
		c0-0.621-0.145-1.233-0.422-1.789L309.473,22.5H316c2.209,0,4-1.791,4-4v-8C320,6.639,317.841,1.447,307.553-1.359z M312,48.5h-48
		v-12l12-24h24l12,24V48.5z M316,18.5h-8.527l-3.895-7.789C302.9,9.355,301.516,8.5,300,8.5h-24c-1.515,0-2.9,0.855-3.577,2.211
		l-3.895,7.789H260v-8c0-8,16-10,28-10s28,2,28,10V18.5z M288,18.5c5.514,0,10,4.486,10,10s-4.486,10-10,10s-10-4.486-10-10
		S282.486,18.5,288,18.5 M288,16.5c-6.627,0-12,5.373-12,12s5.373,12,12,12c6.628,0,12-5.373,12-12S294.628,16.5,288,16.5L288,16.5z
		"/>
	<path d="M416,40.5c8.822,0,16-7.178,16-16v-16c0-8.822-7.178-16-16-16s-16,7.178-16,16v16C400,33.322,407.178,40.5,416,40.5z
		 M428,20.5h-24v-8h24V20.5z M416-3.5c6.628,0,12,5.373,12,12v2h-24v-2C404,1.873,409.373-3.5,416-3.5z M404,22.5h24v2
		c0,6.627-5.372,12-12,12c-6.627,0-12-5.373-12-12V22.5z M440,18.5v6c0,12.56-9.699,22.896-22,23.916V52.5h8c1.104,0,2,0.896,2,2
		s-0.896,2-2,2h-20c-1.104,0-2-0.896-2-2s0.896-2,2-2h8v-4.084c-12.301-1.02-22-11.356-22-23.916v-6c0-1.104,0.896-2,2-2
		s2,0.896,2,2v6c0,11.027,8.973,20,20,20c11.028,0,20-8.973,20-20v-6c0-1.104,0.896-2,2-2S440,17.396,440,18.5z"/>
	<path d="M572-7.5h-48c-2.209,0-4,1.791-4,4v4h-4c-2.209,0-4,1.791-4,4v44c0,4.411,3.588,8,8,8h48c4.411,0,8-3.589,8-8v-52
		C576-5.709,574.209-7.5,572-7.5z M572,48.5c0,2.199-1.801,4-4,4h-48c-2.201,0-4-1.801-4-4v-44h6v40c0,0.553,0.447,1,1,1
		c0.552,0,1-0.447,1-1v-40v-8h48V48.5z M530,16.5h14c1.104,0,2-0.896,2-2v-12c0-1.104-0.896-2-2-2h-14c-1.105,0-2,0.896-2,2v12
		C528,15.604,528.895,16.5,530,16.5z M530,2.5h14v12h-14V2.5z M550,5.5c0-0.553,0.447-1,1-1h16c0.552,0,1,0.447,1,1s-0.448,1-1,1
		h-16C550.447,6.5,550,6.053,550,5.5z M550,13.5c0-0.553,0.447-1,1-1h16c0.552,0,1,0.447,1,1s-0.448,1-1,1h-16
		C550.447,14.5,550,14.053,550,13.5z M550,21.5c0-0.553,0.447-1,1-1h16c0.552,0,1,0.447,1,1s-0.448,1-1,1h-16
		C550.447,22.5,550,22.053,550,21.5z M550,29.5c0-0.553,0.447-1,1-1h16c0.552,0,1,0.447,1,1s-0.448,1-1,1h-16
		C550.447,30.5,550,30.053,550,29.5z M550,37.5c0-0.553,0.447-1,1-1h16c0.552,0,1,0.447,1,1s-0.448,1-1,1h-16
		C550.447,38.5,550,38.053,550,37.5z M550,45.5c0-0.553,0.447-1,1-1h16c0.552,0,1,0.447,1,1s-0.448,1-1,1h-16
		C550.447,46.5,550,46.053,550,45.5z M528,21.5c0-0.553,0.447-1,1-1h16c0.552,0,1,0.447,1,1s-0.448,1-1,1h-16
		C528.447,22.5,528,22.053,528,21.5z M528,29.5c0-0.553,0.447-1,1-1h16c0.552,0,1,0.447,1,1s-0.448,1-1,1h-16
		C528.447,30.5,528,30.053,528,29.5z M528,37.5c0-0.553,0.447-1,1-1h16c0.552,0,1,0.447,1,1s-0.448,1-1,1h-16
		C528.447,38.5,528,38.053,528,37.5z M528,45.5c0-0.553,0.447-1,1-1h16c0.552,0,1,0.447,1,1s-0.448,1-1,1h-16
		C528.447,46.5,528,46.053,528,45.5z"/>
	<path d="M53.403,126.682c-0.753-1.712-2.127-3.027-3.87-3.705c-0.811-0.317-1.665-0.477-2.536-0.477
		c-2.908,0-5.469,1.752-6.523,4.463l-3.231,8.311l-1.321-8.812c-0.25-1.667-1.094-3.188-2.374-4.282
		c-1.267-1.083-2.88-1.68-4.543-1.68l0,0c-0.349,0-0.701,0.026-1.047,0.078c-1.846,0.277-3.476,1.258-4.587,2.762
		s-1.571,3.351-1.293,5.199l1.649,10.999c-0.239-0.024-0.481-0.038-0.728-0.038c-2.506,0-4.707,1.324-5.944,3.309
		c-0.651-0.201-1.341-0.309-2.055-0.309c-3.86,0-7,3.141-7,7v13c0,12.131,9.87,22,22,22s22-9.869,22-22v-7
		c0-3.162-2.109-5.842-4.993-6.706l6.515-16.757C54.199,130.295,54.157,128.393,53.403,126.682z M28.554,124.533
		c0.151-0.021,0.301-0.033,0.45-0.033c1.46,0,2.738,1.068,2.961,2.555l2.649,17.666c-1.073-0.302-2.213-0.299-3.309,0.023
		c-0.971,0.285-1.832,0.799-2.53,1.492l-2.743-18.291C25.786,126.307,26.915,124.779,28.554,124.533z M12,149.5c0-1.656,1.344-3,3-3
		c1.638,0,2.968,1.314,2.997,2.945c0,0.018,0.003,0.037,0.003,0.055v11c0,1.656-1.343,3-3,3c-1.655,0-3-1.341-3-2.995V149.5z
		 M20,146.5L20,146.5c0-1.75,1.344-3,3-3c1.657,0,3,1.344,3,3v11c0,1.656-1.343,3-3,3c-1.656,0-3-1.344-3-3V146.5z M30,180.5
		c-9.235,0-16.843-6.957-17.876-15.916c0.814,0.574,1.805,0.916,2.876,0.916c2.44,0,4.476-1.76,4.91-4.076
		c0.852,0.672,1.924,1.076,3.09,1.076c2.757,0,5-2.243,5-5v-3.681c0.5,0.805,1.255,1.474,2.127,1.948l8.393,4.566l-3.33,4.578
		c-0.324,0.446-0.226,1.072,0.221,1.396c0.178,0.129,0.384,0.191,0.587,0.191c0.31,0,0.614-0.143,0.81-0.412l4-5.5
		c0.169-0.232,0.23-0.527,0.167-0.809c-0.063-0.28-0.244-0.521-0.498-0.658l-9.393-5.109c-0.938-0.512-1.621-1.358-1.922-2.383
		c-0.302-1.025-0.186-2.106,0.326-3.045c0.512-0.938,1.357-1.62,2.383-1.922c1.024-0.301,2.105-0.186,3.043,0.326l11.002,6
		c1.278,0.697,2.085,2.035,2.085,3.495v6.019C48,172.441,39.94,180.5,30,180.5z M49.793,130.588l-7.155,18.336l-5.29-2.886
		l6.854-17.625c0.462-1.187,1.595-1.913,2.796-1.913c0.361,0,0.729,0.065,1.087,0.205C49.628,127.305,50.394,129.044,49.793,130.588
		z"/>
	<path d="M168,141.5c0,1.656-1.344,3-3,3c-1.657,0-3-1.344-3-3s1.343-3,3-3C166.656,138.5,168,139.844,168,141.5z M190.498,149.623
		l-7.812,6.25c-1.14,3.989-2.981,7.693-5.486,11.028c-1.935,2.575-4.222,4.862-6.798,6.798c-2.078,1.561-4.298,2.857-6.621,3.891
		l2.007,4.016c0.494,0.988,0.094,2.189-0.894,2.683c-0.287,0.144-0.593,0.212-0.894,0.212c-0.733,0-1.44-0.405-1.79-1.105
		l-2.197-4.394c-3.207,0.985-6.57,1.498-10.013,1.498c-1.143,0-2.273-0.062-3.396-0.174l-0.665,2.658
		c-0.227,0.908-1.043,1.516-1.938,1.516c-0.161,0-0.323-0.02-0.486-0.061c-1.071-0.268-1.724-1.354-1.456-2.426l0.58-2.314
		c-4.695-1.033-9.117-3.054-13.042-6.002c-0.927-0.695-1.505-1.76-1.587-2.916s0.342-2.291,1.161-3.11
		c0.408-0.408,0.802-0.827,1.181-1.261c-0.406-0.34-0.8-0.701-1.181-1.082c-0.831-0.832-1.255-1.986-1.157-3.158
		c0.097-1.172,0.704-2.242,1.661-2.926c5.933-4.237,8.442-10.466,10.87-16.488c1.823-4.526,3.546-8.801,6.603-12.209
		c3.649-4.068,8.506-6.047,14.852-6.047c4.805,0,9.371,1.522,13.204,4.403c3.273,2.46,5.827,5.841,7.308,9.64l7.546,4.527
		c1.123,0.674,1.845,1.854,1.933,3.16C192.078,147.538,191.521,148.805,190.498,149.623z M175.059,162.994
		c-1.684-1.455-4.215-1.42-6.085-1.117c-6.431,1.044-15.675,6.966-20.639,14.571c0.552,0.03,1.105,0.052,1.665,0.052
		c6.754,0,12.986-2.232,18-5.998c2.271-1.707,4.295-3.729,6.002-6.002C174.369,164.01,174.721,163.508,175.059,162.994z
		 M178.912,154.508c-1.872-4.277-1.862-9.822,0.031-14.086c-2.494-6.949-9.136-11.922-16.943-11.922c-20,0-14,22.571-30,34
		c1.179,1.179,2.445,2.049,3.76,2.671c7.25,2.616,15.775-1.622,18.533-4.378c0.391-0.391,1.023-0.391,1.414,0s0.391,1.023,0,1.414
		c-1.865,1.865-5.87,4.398-11.017,5.398c-1.195,0.232-2.553,0.398-3.997,0.398c-1.817,0-3.772-0.265-5.714-0.982
		c-0.882,1.199-1.865,2.363-2.979,3.479c4.033,3.029,8.857,5.065,14.106,5.746c2.19-3.623,5.463-7.166,9.396-10.135
		c4.37-3.298,9.163-5.561,13.15-6.208c3.11-0.504,5.667-0.028,7.46,1.37C177.308,159.164,178.253,156.896,178.912,154.508z
		 M188,146.5l-7.535-4.521c-1.234,3.301-1.282,7.307-0.14,10.66L188,146.5z"/>
	<path d="M300,124.5l-4,4v20l20,28l-2,4h-52l-2-4l20-28v-20l-4-4H300 M300,120.5h-24c-1.618,0-3.077,0.975-3.696,2.469
		c-0.619,1.495-0.276,3.215,0.867,4.359l2.829,2.828v17.062l-19.255,26.956c-0.861,1.206-0.985,2.788-0.323,4.114l2,4
		c0.678,1.357,2.062,2.212,3.578,2.212h52c1.516,0,2.898-0.855,3.577-2.211l2-4c0.663-1.326,0.539-2.908-0.322-4.114L300,147.219
		v-17.062l2.828-2.828c1.145-1.145,1.486-2.864,0.867-4.359C303.076,121.475,301.617,120.5,300,120.5L300,120.5z M296,156.5l14,20
		h-44l14-20H296 M296,154.5h-16c-0.653,0-1.265,0.318-1.639,0.854l-14,20c-0.428,0.61-0.48,1.408-0.136,2.07
		c0.345,0.661,1.029,1.076,1.775,1.076h44c0.745,0,1.43-0.415,1.773-1.076c0.345-0.662,0.291-1.46-0.137-2.07l-14-20
		C297.264,154.818,296.652,154.5,296,154.5L296,154.5z M292,160.5c2.209,0,4,1.791,4,4s-1.791,4-4,4s-4-1.791-4-4
		S289.791,160.5,292,160.5 M292,158.5c-3.309,0-6,2.691-6,6s2.691,6,6,6s6-2.691,6-6S295.309,158.5,292,158.5L292,158.5z M280,166.5
		c1.103,0,2,0.896,2,2c0,1.103-0.897,2-2,2c-1.104,0-2-0.897-2-2C278,167.396,278.896,166.5,280,166.5 M280,164.5
		c-2.209,0-4,1.791-4,4s1.791,4,4,4s4-1.791,4-4S282.209,164.5,280,164.5L280,164.5z"/>
	<path d="M416,132.5c15.463,0,25.999,14,28,20c-2.001,6-12.537,20-28,20c-15.464,0-26-14-28-20C390,146.5,400.536,132.5,416,132.5
		 M416,128.5c-9.734,0-17.171,4.759-21.695,8.751c-5.686,5.017-8.994,10.669-10.1,13.984c-0.273,0.821-0.273,1.709,0,2.53
		c1.105,3.315,4.414,8.968,10.1,13.984c4.524,3.992,11.961,8.75,21.695,8.75s17.17-4.758,21.695-8.75
		c5.686-5.017,8.992-10.669,10.099-13.984c0.274-0.821,0.274-1.709,0-2.53c-1.104-3.315-4.413-8.968-10.099-13.984
		C433.17,133.259,425.734,128.5,416,128.5L416,128.5z M428,147.5c-0.553,0-1,0.447-1,1v3h-4v-3c0-0.553-0.448-1-1-1
		c-0.553,0-1,0.447-1,1v3h-4v-3c0-0.553-0.448-1-1-1c-0.553,0-1,0.447-1,1v3h-4v-3c0-0.553-0.448-1-1-1c-0.553,0-1,0.447-1,1v3h-4
		v-3c0-0.553-0.448-1-1-1c-0.553,0-1,0.447-1,1v8c0,0.553,0.447,1,1,1c0.552,0,1-0.447,1-1v-3h4v3c0,0.553,0.447,1,1,1
		c0.552,0,1-0.447,1-1v-3h4v3c0,0.553,0.447,1,1,1c0.552,0,1-0.447,1-1v-3h4v3c0,0.553,0.447,1,1,1c0.552,0,1-0.447,1-1v-3h4v3
		c0,0.553,0.447,1,1,1c0.552,0,1-0.447,1-1v-8C429,147.947,428.552,147.5,428,147.5z"/>
	<path d="M526,162.5c-2.21,0-4,1.791-4,4s1.79,4,4,4c2.209,0,4-1.791,4-4S528.209,162.5,526,162.5z M526,168.5c-1.104,0-2-0.897-2-2
		c0-1.104,0.896-2,2-2c1.102,0,2,0.896,2,2C528,167.603,527.102,168.5,526,168.5z M562,162.5c-2.21,0-4,1.791-4,4s1.79,4,4,4
		c2.209,0,4-1.791,4-4S564.209,162.5,562,162.5z M562,168.5c-1.104,0-2-0.897-2-2c0-1.104,0.896-2,2-2c1.102,0,2,0.896,2,2
		C564,167.603,563.102,168.5,562,168.5z M556,126.5h-24c-1.105,0-2,0.896-2,2v2c0,1.104,0.895,2,2,2h24c1.104,0,2-0.896,2-2v-2
		C558,127.396,557.104,126.5,556,126.5z M556,130.5h-24v-2h24V130.5z M574,134.5h-2v-6c0-4.411-3.59-8-8-8h-40c-4.412,0-8,3.589-8,8
		v6h-2c-1.105,0-2,0.896-2,2v16c0,1.104,0.895,2,2,2h2v26c0,2.209,1.791,4,4,4h8c2.209,0,4-1.791,4-4v-4h24v4c0,2.209,1.791,4,4,4h8
		c2.209,0,4-1.791,4-4v-26h2c1.104,0,2-0.896,2-2v-16C576,135.396,575.104,134.5,574,134.5z M520,136.5h23v22h-23V136.5z M520,160.5
		h48v12h-48V160.5z M568,158.5h-23v-22h23V158.5z M520,128.5c0-2.2,1.799-4,4-4h40c2.199,0,4,1.8,4,4v6h-48V128.5z M514,152.5v-16h2
		v16H514z M528,180.5h-8v-4h8V180.5z M568,180.5h-8v-4h8V180.5z M574,152.5h-2v-16h2V152.5z"/>
	<path d="M58,260.5l6-6h-6v-6l-6,6v4.586l-2.346,2.346C45.014,257.133,38.809,254.5,32,254.5c-14.337,0-26,11.664-26,26
		c0,9.697,5.337,18.17,13.228,22.64l-3.04,6.517c-0.467,1-0.034,2.188,0.967,2.658c1.001,0.467,2.191,0.031,2.658-0.969l3.037-6.51
		c2.847,1.074,5.93,1.664,9.15,1.664c3.219,0,6.302-0.59,9.148-1.664l3.038,6.51c0.34,0.726,1.061,1.154,1.814,1.154
		c0.283,0,0.571-0.061,0.845-0.188c1.001-0.47,1.434-1.658,0.967-2.658l-3.04-6.517C52.662,298.67,58,290.197,58,280.5
		c0-6.809-2.633-13.014-6.932-17.654l2.346-2.346H58z M54,280.5c0,12.15-9.85,22-22,22s-22-9.85-22-22s9.85-22,22-22
		c5.715,0,10.921,2.18,14.832,5.753l-5.673,5.673C38.702,267.795,35.5,266.5,32,266.5c-7.72,0-14,6.279-14,14s6.28,14,14,14
		c7.719,0,14-6.279,14-14c0-3.5-1.295-6.703-3.426-9.16l5.673-5.673C51.82,269.578,54,274.785,54,280.5z M35.475,275.609
		c-0.98-0.697-2.18-1.109-3.475-1.109c-3.314,0-6,2.686-6,6c0,3.312,2.686,6,6,6c3.313,0,6-2.688,6-6
		c0-1.296-0.412-2.494-1.111-3.475l4.272-4.272c1.77,2.091,2.839,4.794,2.839,7.747c0,6.627-5.373,12-12,12c-6.628,0-12-5.373-12-12
		s5.372-12,12-12c2.953,0,5.656,1.068,7.746,2.839L35.475,275.609z"/>
	<path d="M160,252.5c7.479,0,14.51,2.912,19.799,8.201c5.288,5.289,8.201,12.32,8.201,19.799s-2.913,14.511-8.201,19.799
		c-5.289,5.289-12.32,8.201-19.799,8.201s-14.511-2.912-19.8-8.201c-5.288-5.287-8.2-12.32-8.2-19.799s2.912-14.51,8.2-19.799
		C145.489,255.412,152.521,252.5,160,252.5 M160,248.5c-17.674,0-32,14.326-32,32c0,17.673,14.326,32,32,32
		c17.673,0,32-14.327,32-32C192,262.826,177.673,248.5,160,248.5L160,248.5z M153,264.5c-1.657,0-3,2.686-3,6c0,3.312,1.343,6,3,6
		c1.656,0,3-2.688,3-6C156,267.186,154.656,264.5,153,264.5z M167,264.5c-1.657,0-3,2.686-3,6c0,3.312,1.343,6,3,6
		c1.656,0,3-2.688,3-6C170,267.186,168.656,264.5,167,264.5z M160,300.5c7.125,0,13.59-4.216,16.47-10.739
		c0.446-1.011-0.011-2.19-1.022-2.638c-1.01-0.445-2.19,0.012-2.637,1.021c-2.241,5.077-7.27,8.356-12.811,8.356
		c-5.543,0-10.571-3.279-12.812-8.355c-0.446-1.01-1.627-1.467-2.638-1.021c-1.01,0.446-1.468,1.627-1.021,2.638
		C146.408,296.284,152.873,300.5,160,300.5L160,300.5z"/>
	<path d="M284,274.5c0-2.209,1.791-4,4-4s4,1.791,4,4s-1.791,4-4,4S284,276.709,284,274.5z M295.07,259.43
		c-2.047,0-4.096,0.78-5.656,2.342c-1.656,1.656-2.831,4.254-3.105,6.795l-3.259-3.258c-2.322-2.322-4.317-4.316-6.061-4.316
		c-0.602,0-1.173,0.236-1.718,0.779c-3.124,3.125-3.124,8.189,0,11.314c1.656,1.655,4.253,2.83,6.795,3.105l-3.26,3.258
		c-3.124,3.125-5.656,5.656-3.535,7.779c1.562,1.562,3.609,2.342,5.657,2.342c2.047,0,4.095-0.78,5.657-2.342
		c1.654-1.656,2.83-4.254,3.104-6.795l3.259,3.258c2.321,2.322,4.317,4.316,6.061,4.316c0.603,0,1.173-0.236,1.718-0.779
		c3.125-3.125,3.125-8.189,0-11.314c-1.653-1.655-4.252-2.83-6.795-3.105l3.26-3.258c3.125-3.125,5.656-5.656,3.535-7.779
		C299.166,260.21,297.118,259.43,295.07,259.43 M295.07,257.43c2.672,0,5.183,1.039,7.07,2.928c0.941,0.942,2.26,2.969,0.51,5.941
		c-0.889,1.51-2.422,3.043-4.045,4.666l-0.773,0.773c1.652,0.656,3.154,1.604,4.311,2.762c3.898,3.898,3.898,10.243,0,14.143
		c-1.131,1.131-2.328,1.367-3.133,1.367c-2.57,0-4.844-2.271-7.475-4.902l-0.773-0.773c-0.656,1.65-1.604,3.152-2.762,4.312
		c-1.889,1.889-4.4,2.929-7.071,2.929c-2.671,0-5.183-1.04-7.071-2.929c-0.941-0.942-2.26-2.969-0.509-5.941
		c0.888-1.51,2.421-3.042,4.044-4.666l0.775-0.773c-1.653-0.656-3.154-1.604-4.311-2.762c-3.898-3.898-3.898-10.242,0-14.143
		c1.131-1.131,2.327-1.367,3.133-1.367c2.57,0,4.843,2.271,7.474,4.902l0.774,0.773c0.655-1.65,1.605-3.152,2.762-4.312
		C289.889,258.469,292.398,257.43,295.07,257.43L295.07,257.43z M308,308.5v4h-40v-4c0-4.411,3.588-8,8-8h1.527l0.895-1.789
		l0.019-0.037C268.82,294.857,262,285.462,262,274.5c0-14.336,11.663-26,26-26c14.336,0,26,11.664,26,26
		c0,10.962-6.82,20.357-16.441,24.176l0.021,0.035l0.896,1.789H300C304.41,300.5,308,304.089,308,308.5z M288,296.5
		c12.15,0,22-9.85,22-22s-9.85-22-22-22s-22,9.85-22,22S275.85,296.5,288,296.5z M304,308.5c0-2.209-1.791-4-4-4h-4l-2-4h-12l-2,4
		h-4c-2.21,0-4,1.791-4,4H304z"/>
	<path d="M446.402,257.302c-4.182-3.142-9.162-4.802-14.403-4.802c-3.784,0-7.555,0.904-10.905,2.616
		c-1.836,0.938-3.553,2.12-5.094,3.5c-1.543-1.38-3.26-2.562-5.096-3.5c-3.349-1.712-7.121-2.616-10.904-2.616
		c-5.241,0-10.221,1.66-14.402,4.801c-1.006,0.756-1.598,1.941-1.598,3.199v40c0,1.516,0.855,2.901,2.212,3.578
		c0.565,0.283,1.179,0.422,1.787,0.422c0.851,0,1.696-0.271,2.403-0.802c2.785-2.092,6.104-3.198,9.598-3.198
		c5.079,0,9.745,2.334,12.801,6.402c0.756,1.006,1.941,1.598,3.199,1.598s2.442-0.592,3.197-1.598
		c3.057-4.068,7.723-6.402,12.802-6.402c3.494,0,6.812,1.106,9.598,3.199c0.707,0.529,1.553,0.801,2.403,0.801
		c0.609,0,1.222-0.139,1.787-0.422c1.354-0.677,2.213-2.062,2.213-3.578v-40C448,259.242,447.408,258.057,446.402,257.302z
		 M400,296.5c-4.503,0-8.658,1.489-12,4v-40c3.342-2.512,7.497-4,12-4c5.974,0,11.335,2.621,15,6.773v40.002
		C411.335,299.121,405.974,296.5,400,296.5z M444,300.5c-3.344-2.511-7.498-4-12.001-4c-5.974,0-11.335,2.621-14.999,6.774v-40.001
		c3.664-4.152,9.025-6.773,14.999-6.773c4.503,0,8.657,1.488,12.001,4V300.5z"/>
	<path d="M544,270.5c5.521,0,10,4.477,10,10s-4.479,10-10,10c-5.523,0-10-4.477-10-10S538.477,270.5,544,270.5 M544,268.5
		c-6.617,0-12,5.383-12,12s5.383,12,12,12c6.616,0,12-5.383,12-12S550.616,268.5,544,268.5L544,268.5z M544,252.5
		c1.027,0,2.042,0.057,3.041,0.165l2.128,8.513c1.714,0.457,3.335,1.139,4.834,2.006l7.527-4.516
		c1.584,1.273,3.025,2.717,4.301,4.301l-4.516,7.527c0.866,1.5,1.549,3.121,2.006,4.834l8.514,2.129
		c0.107,0.998,0.165,2.014,0.165,3.041s-0.058,2.042-0.165,3.041l-8.514,2.129c-0.457,1.713-1.14,3.334-2.006,4.834l4.517,7.526
		c-1.274,1.585-2.717,3.025-4.302,4.302l-7.527-4.518c-1.499,0.867-3.12,1.55-4.834,2.008l-2.128,8.513
		c-0.999,0.108-2.014,0.165-3.041,0.165c-1.028,0-2.042-0.057-3.041-0.165l-2.129-8.513c-1.713-0.458-3.334-1.141-4.834-2.008
		l-7.526,4.518c-1.585-1.274-3.026-2.717-4.302-4.303l4.516-7.526c-0.866-1.499-1.548-3.12-2.006-4.833l-8.513-2.129
		c-0.108-0.999-0.165-2.014-0.165-3.041s0.057-2.042,0.165-3.041l8.513-2.129c0.458-1.713,1.14-3.334,2.006-4.834l-4.516-7.525
		c1.274-1.586,2.717-3.029,4.302-4.303l7.526,4.516c1.5-0.867,3.121-1.549,4.834-2.006l2.129-8.513
		C541.958,252.557,542.972,252.5,544,252.5 M544,248.5c-1.146,0-2.314,0.062-3.471,0.188c-1.667,0.183-3.045,1.381-3.451,3.008
		l-1.591,6.363c-0.45,0.172-0.896,0.356-1.334,0.555l-5.626-3.375c-0.638-0.383-1.35-0.568-2.06-0.568
		c-0.892,0-1.777,0.298-2.507,0.883c-1.807,1.453-3.46,3.105-4.912,4.912c-1.05,1.309-1.175,3.128-0.312,4.562l3.375,5.625
		c-0.198,0.439-0.384,0.887-0.556,1.334l-6.363,1.594c-1.626,0.404-2.826,1.783-3.008,3.449c-0.122,1.156-0.184,2.324-0.184,3.47
		s0.062,2.314,0.188,3.471c0.183,1.666,1.383,3.045,3.009,3.451l6.363,1.592c0.173,0.449,0.355,0.896,0.556,1.334l-3.375,5.625
		c-0.862,1.438-0.737,3.26,0.312,4.562c1.453,1.808,3.106,3.461,4.913,4.914c0.729,0.585,1.615,0.883,2.507,0.883
		c0.71,0,1.423-0.188,2.06-0.57l5.625-3.375c0.438,0.197,0.885,0.383,1.334,0.556l1.592,6.362c0.406,1.627,1.784,2.827,3.451,3.008
		c1.154,0.125,2.322,0.188,3.471,0.188c1.146,0,2.314-0.062,3.471-0.188c1.667-0.181,3.045-1.381,3.451-3.008l1.591-6.362
		c0.45-0.173,0.896-0.355,1.334-0.556l5.625,3.375c0.639,0.382,1.351,0.57,2.06,0.57c0.893,0,1.778-0.298,2.507-0.883
		c1.808-1.453,3.46-3.105,4.913-4.912c1.05-1.307,1.175-3.128,0.312-4.564l-3.375-5.625c0.197-0.438,0.384-0.885,0.555-1.334
		l6.363-1.592c1.627-0.406,2.826-1.785,3.008-3.451c0.125-1.156,0.188-2.324,0.188-3.471s-0.062-2.314-0.188-3.471
		c-0.182-1.668-1.381-3.045-3.008-3.451l-6.363-1.592c-0.171-0.449-0.356-0.896-0.555-1.334l3.375-5.625
		c0.86-1.438,0.736-3.258-0.312-4.564c-1.452-1.806-3.104-3.459-4.912-4.912c-0.728-0.585-1.615-0.883-2.508-0.883
		c-0.709,0-1.421,0.188-2.058,0.57l-5.626,3.375c-0.438-0.198-0.885-0.383-1.334-0.555l-1.592-6.363
		c-0.405-1.627-1.783-2.827-3.45-3.008C546.314,248.562,545.146,248.5,544,248.5L544,248.5z"/>
	<path d="M56,408.5c0-3.297-1.207-6.923-3.689-11.085c-1.789-2.996-4.252-6.266-7.322-9.717
		c-5.129-5.765-10.189-10.069-10.402-10.25C33.84,376.816,32.92,376.5,32,376.5s-1.84,0.316-2.586,0.948
		c-0.215,0.181-5.273,4.485-10.402,10.25c-3.07,3.451-5.533,6.721-7.322,9.717C9.207,401.577,8,405.203,8,408.5
		c0,12.56,9.699,22.896,22,23.916v6.084c0,1.104,0.896,2,2,2c1.105,0,2-0.896,2-2v-6.084C46.301,431.396,56,421.06,56,408.5z
		 M33,428.475v-7.007c4.688-0.285,8.947-2.567,11.801-6.367c0.33-0.439,0.242-1.066-0.199-1.398s-1.07-0.242-1.402,0.199
		c-2.471,3.29-6.146,5.277-10.199,5.562v-10.01c3.1-0.276,5.902-1.824,7.801-4.353c0.33-0.44,0.242-1.066-0.199-1.398
		s-1.07-0.242-1.402,0.199c-1.514,2.019-3.736,3.273-6.199,3.545V397.5c0-0.553-0.447-1-1-1c-0.553,0-1,0.447-1,1v9.944
		c-2.463-0.271-4.686-1.527-6.199-3.545c-0.332-0.442-0.959-0.531-1.402-0.199c-0.439,0.332-0.529,0.958-0.199,1.398
		c1.898,2.526,4.701,4.074,7.801,4.353v10.01c-4.053-0.282-7.729-2.271-10.199-5.562c-0.332-0.442-0.959-0.531-1.402-0.199
		c-0.439,0.332-0.529,0.959-0.199,1.398c2.854,3.8,7.113,6.082,11.801,6.367v7.007C20.418,427.954,12,419.21,12,408.5
		c0-11.046,20-28,20-28s20,16.954,20,28C52,419.21,43.582,427.954,33,428.475z"/>
	<path d="M184,384.5h-26.344l-2.828-2.828c-0.75-0.75-1.768-1.172-2.828-1.172h-16c-4.412,0-8,3.589-8,8v36c0,4.411,3.588,8,8,8h48
		c4.411,0,8-3.589,8-8v-32C192,388.089,188.411,384.5,184,384.5z M132,388.5c0-2.2,1.8-4,4-4h16l4,4h28c1.854,0,3.42,1.281,3.867,3
		H156c-0.266,0-0.52,0.105-0.707,0.293l-3.708,3.707H132V388.5z M188,424.5c0,2.199-1.801,4-4,4h-48c-2.2,0-4-1.801-4-4v-27h20
		c0.265,0,0.52-0.105,0.707-0.293l3.707-3.707H188V424.5z"/>
	<path d="M318.585,393.447c-0.728-0.616-1.646-0.947-2.585-0.947c-0.219,0-0.438,0.018-0.658,0.055l-12,2
		c-1.215,0.202-2.225,0.939-2.807,1.945H300v-4c0-2.209-1.791-4-4-4h-36c-2.209,0-4,1.791-4,4v32c0,2.209,1.791,4,4,4h36
		c2.209,0,4-1.791,4-4v-4h0.535c0.582,1.006,1.592,1.743,2.807,1.945l12,2c0.219,0.037,0.439,0.055,0.658,0.055
		c0.939,0,1.857-0.332,2.585-0.948c0.897-0.76,1.415-1.876,1.415-3.052v-24C320,395.324,319.482,394.208,318.585,393.447z
		 M296,424.5h-36v-32h36V424.5z M298,416.5v-16h4v16H298z M316,420.5l-12-2v-2v-16v-2l12-2V420.5z"/>
	<path d="M440,388.5h-14.84c-0.562-1.25-1.379-2.42-2.395-3.354l6.939-6.939c0.391-0.391,0.391-1.023,0-1.414s-1.024-0.391-1.415,0
		l-7.14,7.141c-1.508-0.908-3.271-1.434-5.152-1.434c-1.884,0-3.647,0.523-5.153,1.434l-7.14-7.141
		c-0.393-0.391-1.024-0.391-1.415,0c-0.392,0.391-0.391,1.023,0,1.414l6.938,6.939c-1.014,0.934-1.831,2.104-2.393,3.354H392
		c-4.411,0-8,3.588-8,8v36c0,4.411,3.589,8,8,8h48c4.411,0,8-3.589,8-8v-36C448,392.088,444.411,388.5,440,388.5z M416,384.5
		c2.96,0,5.544,1.5,6.928,4h-13.854C410.455,386,413.039,384.5,416,384.5z M444,432.5c0,2.209-1.791,4-4,4h-48c-2.209,0-4-1.791-4-4
		v-36c0-2.209,1.791-4,4-4h48c2.209,0,4,1.791,4,4V432.5z M430,398.5v32h-36v-32H430 M430,396.5h-36c-1.104,0-2,0.895-2,2v32
		c0,1.104,0.896,2,2,2h36c1.104,0,2-0.896,2-2v-32C432,397.395,431.104,396.5,430,396.5L430,396.5z M438,398.5c1.104,0,2,0.896,2,2
		c0,1.103-0.896,2-2,2s-2-0.897-2-2C436,399.396,436.896,398.5,438,398.5 M438,396.5c-2.209,0-4,1.791-4,4s1.791,4,4,4s4-1.791,4-4
		S440.209,396.5,438,396.5L438,396.5z M438,408.5c1.104,0,2,0.896,2,2c0,1.103-0.896,2-2,2s-2-0.897-2-2
		C436,409.396,436.896,408.5,438,408.5 M438,406.5c-2.209,0-4,1.791-4,4s1.791,4,4,4s4-1.791,4-4S440.209,406.5,438,406.5L438,406.5
		z"/>
	<path d="M534,402.5v28h-4v-28H534 M534,400.5h-4c-1.105,0-2,0.896-2,2v28c0,1.104,0.895,2,2,2h4c1.104,0,2-0.896,2-2v-28
		C536,401.396,535.104,400.5,534,400.5L534,400.5z M558,402.5v28h-4v-28H558 M558,400.5h-4c-1.105,0-2,0.896-2,2v28
		c0,1.104,0.895,2,2,2h4c1.104,0,2-0.896,2-2v-28C560,401.396,559.104,400.5,558,400.5L558,400.5z M546,402.5v28h-4v-28H546
		 M546,400.5h-4c-1.105,0-2,0.896-2,2v28c0,1.104,0.895,2,2,2h4c1.104,0,2-0.896,2-2v-28C548,401.396,547.104,400.5,546,400.5
		L546,400.5z M568,384.5h-10v-2c0-3.309-2.692-6-6-6h-16c-3.309,0-6,2.691-6,6v2h-10c-2.209,0-4,1.791-4,4v4c0,2.209,1.791,4,4,4v36
		c0,4.411,3.588,8,8,8h32c4.41,0,8-3.589,8-8v-36c2.209,0,4-1.791,4-4v-4C572,386.291,570.209,384.5,568,384.5z M534,382.5
		c0-1.104,0.896-2,2-2h16c1.104,0,2,0.896,2,2v2h-20V382.5z M564,432.5c0,2.199-1.801,4-4,4h-32c-2.2,0-4-1.801-4-4v-38h40V432.5z
		 M568,392.5h-48v-4h48V392.5z"/>
</g>
</svg>
