<?xml version="1.0" encoding="utf-8"?>
<!-- Generator: Adobe Illustrator 16.2.1, SVG Export Plug-In . SVG Version: 6.00 Build 0)  -->
<!DOCTYPE svg PUBLIC "-//W3C//DTD SVG 1.1//EN" "http://www.w3.org/Graphics/SVG/1.1/DTD/svg11.dtd">
<svg version="1.1" id="Layer_1" xmlns="http://www.w3.org/2000/svg" xmlns:xlink="http://www.w3.org/1999/xlink" x="0px" y="0px"
	 width="576px" height="448px" viewBox="0 0 576 448" enable-background="new 0 0 576 448" xml:space="preserve">
<path fill="#444444" d="M57.8,21.498C59.161,20.062,60,18.129,60,16c0-4.411-3.589-8-8-8s-8,3.589-8,8
	c0,2.13,0.84,4.064,2.201,5.499c-0.752,0.417-1.451,0.915-2.095,1.478c-1.326-2.276-3.275-4.148-5.613-5.377
	C40.639,15.764,42,13.038,42,10c0-5.514-4.486-10-10-10S22,4.486,22,10c0,3.038,1.362,5.764,3.507,7.6
	c-2.337,1.229-4.286,3.1-5.612,5.376c-0.643-0.562-1.342-1.061-2.095-1.478C19.161,20.062,20,18.129,20,16c0-4.411-3.589-8-8-8
	s-8,3.589-8,8c0,2.13,0.84,4.064,2.201,5.499C2.507,23.547,0,27.485,0,32v8c0,2.209,1.791,4,4,4v10c0,2.209,1.791,4,4,4h8
	c2.209,0,4-1.791,4-4v-6.539C20.589,47.802,21.27,48,22,48v12c0,2.209,1.791,4,4,4h12c2.209,0,4-1.791,4-4V48
	c0.729,0,1.411-0.198,2-0.539V54c0,2.209,1.791,4,4,4h8c2.209,0,4-1.791,4-4V44c2.209,0,4-1.791,4-4v-8
	C64,27.485,61.494,23.546,57.8,21.498z M12,12c2.209,0,4,1.791,4,4s-1.791,4-4,4s-4-1.791-4-4S9.791,12,12,12z M16,33v21h-3V40
	c0-0.553-0.447-1-1-1s-1,0.447-1,1v14H8V33c0-0.553-0.447-1-1-1s-1,0.447-1,1v7H4v-8c0-4.418,3.582-8,8-8
	c2.563,0,4.843,1.207,6.307,3.081C18.106,28.022,18,28.999,18,30v2h-1C16.447,32,16,32.447,16,33z M52,12c2.209,0,4,1.791,4,4
	s-1.791,4-4,4s-4-1.791-4-4S49.791,12,52,12z M32,4c3.314,0,6,2.687,6,6s-2.686,6-6,6s-6-2.687-6-6S28.686,4,32,4z M42,44h-2V31
	c0-0.553-0.447-1-1-1s-1,0.447-1,1v29h-5V44c0-0.553-0.447-1-1-1s-1,0.447-1,1v16h-5V31c0-0.553-0.447-1-1-1s-1,0.447-1,1v13h-2V30
	c0-5.522,4.478-10,10-10c5.523,0,10,4.478,10,10V44z M60,40h-2v-7c0-0.553-0.447-1-1-1s-1,0.447-1,1v21h-3V40c0-0.553-0.447-1-1-1
	s-1,0.447-1,1v14h-3V33c0-0.553-0.447-1-1-1h-1v-2c0-1.001-0.105-1.978-0.307-2.919C47.157,25.207,49.438,24,52,24
	c4.418,0,8,3.582,8,8V40z"/>
<rect fill="none" width="64" height="64"/>
<path fill="#444444" d="M146,8c3.274,0,6.088,1.968,7.325,4.785C155.445,12.274,157.684,12,160,12c13.255,0,24,8.954,24,20
	c0,6.691-3.943,12.615-10,16.245V56h-6v-5.14c-2.502,0.737-5.194,1.14-8,1.14c-2.805,0-5.498-0.402-8-1.14V56h-6v-7.755
	c-4.816-2.888-8.297-7.225-9.52-12.245H132v-8h4.48c1.223-5.021,4.703-9.357,9.52-12.245V8 M146,4c-2.209,0-4,1.791-4,4v5.6
	c-3.863,2.77-6.756,6.352-8.414,10.4H132c-2.209,0-4,1.791-4,4v8c0,2.209,1.791,4,4,4h1.586c1.658,4.049,4.551,7.631,8.414,10.4V56
	c0,2.209,1.791,4,4,4h6c2.209,0,4-1.791,4-4v-0.242c1.318,0.161,2.655,0.242,4,0.242c1.346,0,2.682-0.081,4-0.242V56
	c0,2.209,1.791,4,4,4h6c2.209,0,4-1.791,4-4v-5.602c6.303-4.532,10-11.266,10-18.398c0-6.551-3.007-12.664-8.469-17.215
	C174.281,10.41,167.345,8,160,8c-1.6,0-3.192,0.115-4.759,0.346C152.996,5.637,149.628,4,146,4L146,4z M150,25c0-1.656-1.343-3-3-3
	c-1.656,0-3,1.344-3,3c0,1.657,1.344,3,3,3C148.657,28,150,26.657,150,25z M166,18h-12v2h12V18z"/>
<rect x="128" fill="none" width="64" height="64"/>
<path fill="#444444" d="M307.553,6.141C301.064,4.371,293.339,4,288,4c-5.338,0-13.064,0.371-19.553,2.141
	C258.159,8.947,256,14.139,256,18v8c0,2.209,1.791,4,4,4h6.528l-6.105,12.211C260.145,42.767,260,43.379,260,44v12
	c0,2.209,1.791,4,4,4h48c2.209,0,4-1.791,4-4V44c0-0.621-0.145-1.233-0.422-1.789L309.473,30H316c2.209,0,4-1.791,4-4v-8
	C320,14.139,317.841,8.947,307.553,6.141z M312,56h-48V44l12-24h24l12,24V56z M316,26h-8.527l-3.895-7.789
	C302.9,16.855,301.516,16,300,16h-24c-1.515,0-2.9,0.855-3.577,2.211L268.528,26H260v-8c0-8,16-10,28-10s28,2,28,10V26z M288,26
	c5.514,0,10,4.486,10,10s-4.486,10-10,10c-5.514,0-10-4.486-10-10S282.486,26,288,26 M288,24c-6.627,0-12,5.373-12,12
	s5.373,12,12,12c6.628,0,12-5.373,12-12S294.628,24,288,24L288,24z"/>
<rect x="256" fill="none" width="64" height="64"/>
<path fill="#444444" d="M416,48c8.822,0,16-7.178,16-16V16c0-8.822-7.178-16-16-16s-16,7.178-16,16v16C400,40.822,407.178,48,416,48
	z M428,28h-24v-8h24V28z M416,4c6.628,0,12,5.373,12,12v2h-24v-2C404,9.373,409.373,4,416,4z M404,30h24v2c0,6.627-5.372,12-12,12
	c-6.627,0-12-5.373-12-12V30z M440,26v6c0,12.56-9.699,22.896-22,23.916V60h8c1.104,0,2,0.896,2,2s-0.896,2-2,2h-20
	c-1.104,0-2-0.896-2-2s0.896-2,2-2h8v-4.084C401.699,54.896,392,44.56,392,32v-6c0-1.104,0.896-2,2-2s2,0.896,2,2v6
	c0,11.027,8.973,20,20,20c11.028,0,20-8.973,20-20v-6c0-1.104,0.896-2,2-2S440,24.896,440,26z"/>
<rect x="384" fill="none" width="64" height="64"/>
<path fill="#444444" d="M572,0h-48c-2.209,0-4,1.791-4,4v4h-4c-2.209,0-4,1.791-4,4v44c0,4.411,3.588,8,8,8h48c4.411,0,8-3.589,8-8
	V4C576,1.791,574.209,0,572,0z M572,56c0,2.199-1.801,4-4,4h-48c-2.201,0-4-1.801-4-4V12h6v40c0,0.553,0.447,1,1,1
	c0.552,0,1-0.447,1-1V12V4h48V56z M530,24h14c1.104,0,2-0.896,2-2V10c0-1.104-0.896-2-2-2h-14c-1.105,0-2,0.896-2,2v12
	C528,23.104,528.895,24,530,24z M530,10h14v12h-14V10z M550,13c0-0.553,0.447-1,1-1h16c0.552,0,1,0.447,1,1s-0.448,1-1,1h-16
	C550.447,14,550,13.553,550,13z M550,21c0-0.553,0.447-1,1-1h16c0.552,0,1,0.447,1,1s-0.448,1-1,1h-16C550.447,22,550,21.553,550,21
	z M550,29c0-0.553,0.447-1,1-1h16c0.552,0,1,0.447,1,1s-0.448,1-1,1h-16C550.447,30,550,29.553,550,29z M550,37c0-0.553,0.447-1,1-1
	h16c0.552,0,1,0.447,1,1s-0.448,1-1,1h-16C550.447,38,550,37.553,550,37z M550,45c0-0.553,0.447-1,1-1h16c0.552,0,1,0.447,1,1
	s-0.448,1-1,1h-16C550.447,46,550,45.553,550,45z M550,53c0-0.553,0.447-1,1-1h16c0.552,0,1,0.447,1,1s-0.448,1-1,1h-16
	C550.447,54,550,53.553,550,53z M528,29c0-0.553,0.447-1,1-1h16c0.552,0,1,0.447,1,1s-0.448,1-1,1h-16C528.447,30,528,29.553,528,29
	z M528,37c0-0.553,0.447-1,1-1h16c0.552,0,1,0.447,1,1s-0.448,1-1,1h-16C528.447,38,528,37.553,528,37z M528,45c0-0.553,0.447-1,1-1
	h16c0.552,0,1,0.447,1,1s-0.448,1-1,1h-16C528.447,46,528,45.553,528,45z M528,53c0-0.553,0.447-1,1-1h16c0.552,0,1,0.447,1,1
	s-0.448,1-1,1h-16C528.447,54,528,53.553,528,53z"/>
<rect x="512" fill="none" width="64" height="64"/>
<path fill="#444444" d="M53.403,134.182c-0.753-1.712-2.127-3.027-3.87-3.705C48.722,130.16,47.868,130,46.997,130
	c-2.908,0-5.469,1.752-6.523,4.463l-3.231,8.311l-1.321-8.812c-0.25-1.667-1.094-3.188-2.374-4.282
	c-1.267-1.083-2.88-1.68-4.543-1.68l0,0c-0.349,0-0.701,0.026-1.047,0.078c-1.846,0.277-3.476,1.258-4.587,2.762
	c-1.111,1.504-1.571,3.351-1.293,5.199l1.649,10.999c-0.239-0.024-0.481-0.038-0.728-0.038c-2.506,0-4.707,1.324-5.944,3.309
	C16.404,150.108,15.714,150,15,150c-3.86,0-7,3.141-7,7v13c0,12.131,9.87,22,22,22s22-9.869,22-22v-7
	c0-3.162-2.109-5.842-4.993-6.706l6.515-16.757C54.199,137.795,54.157,135.893,53.403,134.182z M28.554,132.033
	c0.151-0.021,0.301-0.033,0.45-0.033c1.46,0,2.738,1.068,2.961,2.555l2.649,17.666c-1.073-0.302-2.213-0.299-3.309,0.023
	c-0.971,0.285-1.832,0.799-2.53,1.492l-2.743-18.291C25.786,133.807,26.915,132.279,28.554,132.033z M12,157c0-1.656,1.344-3,3-3
	c1.638,0,2.968,1.314,2.997,2.945c0,0.018,0.003,0.037,0.003,0.055v11c0,1.656-1.343,3-3,3c-1.655,0-3-1.341-3-2.995V157z M20,154
	L20,154c0-1.75,1.344-3,3-3c1.657,0,3,1.344,3,3v11c0,1.656-1.343,3-3,3c-1.656,0-3-1.344-3-3V154z M30,188
	c-9.235,0-16.843-6.957-17.876-15.916C12.938,172.658,13.929,173,15,173c2.44,0,4.476-1.76,4.91-4.076
	C20.762,169.596,21.834,170,23,170c2.757,0,5-2.243,5-5v-3.681c0.5,0.805,1.255,1.474,2.127,1.948l8.393,4.566l-3.33,4.578
	c-0.324,0.446-0.226,1.072,0.221,1.396c0.178,0.129,0.384,0.191,0.587,0.191c0.31,0,0.614-0.143,0.81-0.412l4-5.5
	c0.169-0.232,0.23-0.527,0.167-0.809c-0.063-0.28-0.244-0.521-0.498-0.658l-9.393-5.109c-0.938-0.512-1.621-1.358-1.922-2.383
	c-0.302-1.025-0.186-2.106,0.326-3.045c0.512-0.938,1.357-1.62,2.383-1.922c1.024-0.301,2.105-0.186,3.043,0.326l11.002,6
	c1.278,0.697,2.085,2.035,2.085,3.495V170C48,179.941,39.94,188,30,188z M49.793,138.088l-7.155,18.336l-5.29-2.886l6.854-17.625
	c0.462-1.187,1.595-1.913,2.796-1.913c0.361,0,0.729,0.065,1.087,0.205C49.628,134.805,50.394,136.544,49.793,138.088z"/>
<rect y="128" fill="none" width="64" height="64"/>
<path fill="#444444" d="M168,149c0,1.656-1.344,3-3,3c-1.657,0-3-1.344-3-3s1.343-3,3-3C166.656,146,168,147.344,168,149z
	 M190.498,157.123l-7.812,6.25c-1.14,3.989-2.981,7.693-5.486,11.028c-1.935,2.575-4.222,4.862-6.798,6.798
	c-2.078,1.561-4.298,2.857-6.621,3.891l2.007,4.016c0.494,0.988,0.094,2.189-0.894,2.683c-0.287,0.144-0.593,0.212-0.894,0.212
	c-0.733,0-1.44-0.405-1.79-1.105l-2.197-4.394C156.806,187.487,153.443,188,150,188c-1.143,0-2.273-0.062-3.396-0.174l-0.665,2.658
	c-0.227,0.908-1.043,1.516-1.938,1.516c-0.161,0-0.323-0.02-0.486-0.061c-1.071-0.268-1.724-1.354-1.456-2.426l0.58-2.314
	c-4.695-1.033-9.117-3.054-13.042-6.002c-0.927-0.695-1.505-1.76-1.587-2.916c-0.082-1.156,0.342-2.291,1.161-3.11
	c0.408-0.408,0.802-0.827,1.181-1.261c-0.406-0.34-0.8-0.701-1.181-1.082c-0.831-0.832-1.255-1.986-1.157-3.158
	c0.097-1.172,0.704-2.242,1.661-2.926c5.933-4.237,8.442-10.466,10.87-16.488c1.823-4.526,3.546-8.801,6.603-12.209
	C150.797,133.979,155.654,132,162,132c4.805,0,9.371,1.522,13.204,4.403c3.273,2.46,5.827,5.841,7.308,9.64l7.546,4.527
	c1.123,0.674,1.845,1.854,1.933,3.16C192.078,155.038,191.521,156.305,190.498,157.123z M175.059,170.494
	c-1.684-1.455-4.215-1.42-6.085-1.117c-6.431,1.044-15.675,6.966-20.639,14.571c0.552,0.03,1.105,0.052,1.665,0.052
	c6.754,0,12.986-2.232,18-5.998c2.271-1.707,4.295-3.729,6.002-6.002C174.369,171.51,174.721,171.008,175.059,170.494z
	 M178.912,162.008c-1.872-4.277-1.862-9.822,0.031-14.086C176.449,140.973,169.807,136,162,136c-20,0-14,22.571-30,34
	c1.179,1.179,2.445,2.049,3.76,2.671c7.25,2.616,15.775-1.622,18.533-4.378c0.391-0.391,1.023-0.391,1.414,0s0.391,1.023,0,1.414
	c-1.865,1.865-5.87,4.398-11.017,5.398c-1.195,0.232-2.553,0.398-3.997,0.398c-1.817,0-3.772-0.265-5.714-0.982
	c-0.882,1.199-1.865,2.363-2.979,3.479c4.033,3.029,8.857,5.065,14.106,5.746c2.19-3.623,5.463-7.166,9.396-10.135
	c4.37-3.298,9.163-5.561,13.15-6.208c3.11-0.504,5.667-0.028,7.46,1.37C177.308,166.664,178.253,164.396,178.912,162.008z M188,154
	l-7.535-4.521c-1.234,3.301-1.282,7.307-0.14,10.66L188,154z"/>
<rect x="128" y="128" fill="none" width="64" height="64"/>
<path fill="#444444" d="M300,132l-4,4v20l20,28l-2,4h-52l-2-4l20-28v-20l-4-4H300 M300,128h-24c-1.618,0-3.077,0.975-3.696,2.469
	c-0.619,1.495-0.276,3.215,0.867,4.359l2.829,2.828v17.062l-19.255,26.956c-0.861,1.206-0.985,2.788-0.323,4.114l2,4
	C259.1,191.145,260.484,192,262,192h52c1.516,0,2.898-0.855,3.577-2.211l2-4c0.663-1.326,0.539-2.908-0.322-4.114L300,154.719
	v-17.062l2.828-2.828c1.145-1.145,1.486-2.864,0.867-4.359C303.076,128.975,301.617,128,300,128L300,128z M296,164l14,20h-44l14-20
	H296 M296,162h-16c-0.653,0-1.265,0.318-1.639,0.854l-14,20c-0.428,0.61-0.48,1.408-0.136,2.07C264.57,185.585,265.254,186,266,186
	h44c0.745,0,1.43-0.415,1.773-1.076c0.345-0.662,0.291-1.46-0.137-2.07l-14-20C297.264,162.318,296.652,162,296,162L296,162z
	 M292,168c2.209,0,4,1.791,4,4s-1.791,4-4,4s-4-1.791-4-4S289.791,168,292,168 M292,166c-3.309,0-6,2.691-6,6s2.691,6,6,6
	s6-2.691,6-6S295.309,166,292,166L292,166z M280,174c1.103,0,2,0.896,2,2c0,1.103-0.897,2-2,2c-1.104,0-2-0.897-2-2
	C278,174.896,278.896,174,280,174 M280,172c-2.209,0-4,1.791-4,4s1.791,4,4,4s4-1.791,4-4S282.209,172,280,172L280,172z"/>
<rect x="256" y="128" fill="none" width="64" height="64"/>
<path fill="#444444" d="M416,140c15.463,0,25.999,14,28,20c-2.001,6-12.537,20-28,20c-15.464,0-26-14-28-20
	C390,154,400.536,140,416,140 M416,136c-9.734,0-17.171,4.759-21.695,8.751c-5.686,5.017-8.994,10.669-10.1,13.984
	c-0.273,0.821-0.273,1.709,0,2.53c1.105,3.315,4.414,8.968,10.1,13.984c4.524,3.992,11.961,8.75,21.695,8.75
	s17.17-4.758,21.695-8.75c5.686-5.017,8.992-10.669,10.099-13.984c0.274-0.821,0.274-1.709,0-2.53
	c-1.104-3.315-4.413-8.968-10.099-13.984C433.17,140.759,425.734,136,416,136L416,136z M428,155c-0.553,0-1,0.447-1,1v3h-4v-3
	c0-0.553-0.448-1-1-1c-0.553,0-1,0.447-1,1v3h-4v-3c0-0.553-0.448-1-1-1c-0.553,0-1,0.447-1,1v3h-4v-3c0-0.553-0.448-1-1-1
	c-0.553,0-1,0.447-1,1v3h-4v-3c0-0.553-0.448-1-1-1c-0.553,0-1,0.447-1,1v8c0,0.553,0.447,1,1,1c0.552,0,1-0.447,1-1v-3h4v3
	c0,0.553,0.447,1,1,1c0.552,0,1-0.447,1-1v-3h4v3c0,0.553,0.447,1,1,1c0.552,0,1-0.447,1-1v-3h4v3c0,0.553,0.447,1,1,1
	c0.552,0,1-0.447,1-1v-3h4v3c0,0.553,0.447,1,1,1c0.552,0,1-0.447,1-1v-8C429,155.447,428.552,155,428,155z"/>
<rect x="384" y="128" fill="none" width="64" height="64"/>
<path fill="#444444" d="M526,170c-2.21,0-4,1.791-4,4s1.79,4,4,4c2.209,0,4-1.791,4-4S528.209,170,526,170z M526,176
	c-1.104,0-2-0.897-2-2c0-1.104,0.896-2,2-2c1.102,0,2,0.896,2,2C528,175.103,527.102,176,526,176z M562,170c-2.21,0-4,1.791-4,4
	s1.79,4,4,4c2.209,0,4-1.791,4-4S564.209,170,562,170z M562,176c-1.104,0-2-0.897-2-2c0-1.104,0.896-2,2-2c1.102,0,2,0.896,2,2
	C564,175.103,563.102,176,562,176z M556,134h-24c-1.105,0-2,0.896-2,2v2c0,1.104,0.895,2,2,2h24c1.104,0,2-0.896,2-2v-2
	C558,134.896,557.104,134,556,134z M556,138h-24v-2h24V138z M574,142h-2v-6c0-4.411-3.59-8-8-8h-40c-4.412,0-8,3.589-8,8v6h-2
	c-1.105,0-2,0.896-2,2v16c0,1.104,0.895,2,2,2h2v26c0,2.209,1.791,4,4,4h8c2.209,0,4-1.791,4-4v-4h24v4c0,2.209,1.791,4,4,4h8
	c2.209,0,4-1.791,4-4v-26h2c1.104,0,2-0.896,2-2v-16C576,142.896,575.104,142,574,142z M520,144h23v22h-23V144z M520,168h48v12h-48
	V168z M568,166h-23v-22h23V166z M520,136c0-2.2,1.799-4,4-4h40c2.199,0,4,1.8,4,4v6h-48V136z M514,160v-16h2v16H514z M528,188h-8v-4
	h8V188z M568,188h-8v-4h8V188z M574,160h-2v-16h2V160z"/>
<rect x="512" y="128" fill="none" width="64" height="64"/>
<path fill="#444444" d="M58,268l6-6h-6v-6l-6,6v4.586l-2.346,2.346C45.014,264.633,38.809,262,32,262c-14.337,0-26,11.664-26,26
	c0,9.697,5.337,18.17,13.228,22.64l-3.04,6.517c-0.467,1-0.034,2.188,0.967,2.658c1.001,0.467,2.191,0.031,2.658-0.969l3.037-6.51
	C25.697,313.41,28.78,314,32,314c3.219,0,6.302-0.59,9.148-1.664l3.038,6.51C44.526,319.572,45.247,320,46,320
	c0.283,0,0.571-0.061,0.845-0.188c1.001-0.47,1.434-1.658,0.967-2.658l-3.04-6.517C52.662,306.17,58,297.697,58,288
	c0-6.809-2.633-13.014-6.932-17.654L53.414,268H58z M54,288c0,12.15-9.85,22-22,22s-22-9.85-22-22s9.85-22,22-22
	c5.715,0,10.921,2.18,14.832,5.753l-5.673,5.673C38.702,275.295,35.5,274,32,274c-7.72,0-14,6.279-14,14s6.28,14,14,14
	c7.719,0,14-6.279,14-14c0-3.5-1.295-6.703-3.426-9.16l5.673-5.673C51.82,277.078,54,282.285,54,288z M35.475,283.109
	C34.495,282.412,33.295,282,32,282c-3.314,0-6,2.686-6,6c0,3.312,2.686,6,6,6c3.313,0,6-2.688,6-6c0-1.296-0.412-2.494-1.111-3.475
	l4.272-4.272C42.931,282.344,44,285.047,44,288c0,6.627-5.373,12-12,12c-6.628,0-12-5.373-12-12s5.372-12,12-12
	c2.953,0,5.656,1.068,7.746,2.839L35.475,283.109z"/>
<rect y="256" fill="none" width="64" height="64"/>
<path fill="#444444" d="M160,260c7.479,0,14.51,2.912,19.799,8.201C185.087,273.49,188,280.521,188,288s-2.913,14.511-8.201,19.799
	C174.51,313.088,167.479,316,160,316s-14.511-2.912-19.8-8.201c-5.288-5.287-8.2-12.32-8.2-19.799s2.912-14.51,8.2-19.799
	C145.489,262.912,152.521,260,160,260 M160,256c-17.674,0-32,14.326-32,32c0,17.673,14.326,32,32,32c17.673,0,32-14.327,32-32
	C192,270.326,177.673,256,160,256L160,256z M153,272c-1.657,0-3,2.686-3,6c0,3.312,1.343,6,3,6c1.656,0,3-2.688,3-6
	C156,274.686,154.656,272,153,272z M167,272c-1.657,0-3,2.686-3,6c0,3.312,1.343,6,3,6c1.656,0,3-2.688,3-6
	C170,274.686,168.656,272,167,272z M160,308c7.125,0,13.59-4.216,16.47-10.739c0.446-1.011-0.011-2.19-1.022-2.638
	c-1.01-0.445-2.19,0.012-2.637,1.021C170.57,300.721,165.541,304,160,304c-5.543,0-10.571-3.279-12.812-8.355
	c-0.446-1.01-1.627-1.467-2.638-1.021c-1.01,0.446-1.468,1.627-1.021,2.638C146.408,303.784,152.873,308,160,308L160,308z"/>
<rect x="128" y="256" fill="none" width="64" height="64"/>
<path fill="#444444" d="M284,282c0-2.209,1.791-4,4-4s4,1.791,4,4s-1.791,4-4,4S284,284.209,284,282z M295.07,266.93
	c-2.047,0-4.096,0.78-5.656,2.342c-1.656,1.656-2.831,4.254-3.105,6.795l-3.259-3.258c-2.322-2.322-4.317-4.316-6.061-4.316
	c-0.602,0-1.173,0.236-1.718,0.779c-3.124,3.125-3.124,8.189,0,11.314c1.656,1.655,4.253,2.83,6.795,3.105l-3.26,3.258
	c-3.124,3.125-5.656,5.656-3.535,7.779c1.562,1.562,3.609,2.342,5.657,2.342c2.047,0,4.095-0.78,5.657-2.342
	c1.654-1.656,2.83-4.254,3.104-6.795l3.259,3.258c2.321,2.322,4.317,4.316,6.061,4.316c0.603,0,1.173-0.236,1.718-0.779
	c3.125-3.125,3.125-8.189,0-11.314c-1.653-1.655-4.252-2.83-6.795-3.105l3.26-3.258c3.125-3.125,5.656-5.656,3.535-7.779
	C299.166,267.71,297.118,266.93,295.07,266.93 M295.07,264.93c2.672,0,5.183,1.039,7.07,2.928c0.941,0.942,2.26,2.969,0.51,5.941
	c-0.889,1.51-2.422,3.043-4.045,4.666l-0.773,0.773c1.652,0.656,3.154,1.604,4.311,2.762c3.898,3.898,3.898,10.243,0,14.143
	c-1.131,1.131-2.328,1.367-3.133,1.367c-2.57,0-4.844-2.271-7.475-4.902l-0.773-0.773c-0.656,1.65-1.604,3.152-2.762,4.312
	c-1.889,1.889-4.4,2.929-7.071,2.929c-2.671,0-5.183-1.04-7.071-2.929c-0.941-0.942-2.26-2.969-0.509-5.941
	c0.888-1.51,2.421-3.042,4.044-4.666l0.775-0.773c-1.653-0.656-3.154-1.604-4.311-2.762c-3.898-3.898-3.898-10.242,0-14.143
	c1.131-1.131,2.327-1.367,3.133-1.367c2.57,0,4.843,2.271,7.474,4.902l0.774,0.773c0.655-1.65,1.605-3.152,2.762-4.312
	C289.889,265.969,292.398,264.93,295.07,264.93L295.07,264.93z M308,316v4h-40v-4c0-4.411,3.588-8,8-8h1.527l0.895-1.789
	l0.019-0.037C268.82,302.357,262,292.962,262,282c0-14.336,11.663-26,26-26c14.336,0,26,11.664,26,26
	c0,10.962-6.82,20.357-16.441,24.176l0.021,0.035l0.896,1.789H300C304.41,308,308,311.589,308,316z M288,304c12.15,0,22-9.85,22-22
	s-9.85-22-22-22c-12.15,0-22,9.85-22,22S275.85,304,288,304z M304,316c0-2.209-1.791-4-4-4h-4l-2-4h-12l-2,4h-4c-2.21,0-4,1.791-4,4
	H304z"/>
<rect x="256" y="256" fill="none" width="64" height="64"/>
<path fill="#444444" d="M446.402,264.802C442.22,261.66,437.24,260,431.999,260c-3.784,0-7.555,0.904-10.905,2.616
	c-1.836,0.938-3.553,2.12-5.094,3.5c-1.543-1.38-3.26-2.562-5.096-3.5C407.555,260.904,403.783,260,400,260
	c-5.241,0-10.221,1.66-14.402,4.801C384.592,265.557,384,266.742,384,268v40c0,1.516,0.855,2.901,2.212,3.578
	c0.565,0.283,1.179,0.422,1.787,0.422c0.851,0,1.696-0.271,2.403-0.802c2.785-2.092,6.104-3.198,9.598-3.198
	c5.079,0,9.745,2.334,12.801,6.402c0.756,1.006,1.941,1.598,3.199,1.598s2.442-0.592,3.197-1.598
	c3.057-4.068,7.723-6.402,12.802-6.402c3.494,0,6.812,1.106,9.598,3.199C442.304,311.728,443.15,312,444,312
	c0.609,0,1.222-0.139,1.787-0.422c1.354-0.677,2.213-2.062,2.213-3.578v-40C448,266.742,447.408,265.557,446.402,264.802z M400,304
	c-4.503,0-8.658,1.489-12,4v-40c3.342-2.512,7.497-4,12-4c5.974,0,11.335,2.621,15,6.773v40.002
	C411.335,306.621,405.974,304,400,304z M444,308c-3.344-2.511-7.498-4-12.001-4c-5.974,0-11.335,2.621-14.999,6.774v-40.001
	c3.664-4.152,9.025-6.773,14.999-6.773c4.503,0,8.657,1.488,12.001,4V308z"/>
<rect x="384" y="256" fill="none" width="64" height="64"/>
<path fill="#444444" d="M544,278c5.521,0,10,4.477,10,10s-4.479,10-10,10c-5.523,0-10-4.477-10-10S538.477,278,544,278 M544,276
	c-6.617,0-12,5.383-12,12s5.383,12,12,12c6.616,0,12-5.383,12-12S550.616,276,544,276L544,276z M544,260
	c1.027,0,2.042,0.057,3.041,0.165l2.128,8.513c1.714,0.457,3.335,1.139,4.834,2.006l7.527-4.516
	c1.584,1.273,3.025,2.717,4.301,4.301l-4.516,7.527c0.866,1.5,1.549,3.121,2.006,4.834l8.514,2.129
	c0.107,0.998,0.165,2.014,0.165,3.041s-0.058,2.042-0.165,3.041l-8.514,2.129c-0.457,1.713-1.14,3.334-2.006,4.834l4.517,7.526
	c-1.274,1.585-2.717,3.025-4.302,4.302l-7.527-4.518c-1.499,0.867-3.12,1.55-4.834,2.008l-2.128,8.513
	C546.042,315.943,545.027,316,544,316c-1.028,0-2.042-0.057-3.041-0.165l-2.129-8.513c-1.713-0.458-3.334-1.141-4.834-2.008
	l-7.526,4.518c-1.585-1.274-3.026-2.717-4.302-4.303l4.516-7.526c-0.866-1.499-1.548-3.12-2.006-4.833l-8.513-2.129
	C516.057,290.042,516,289.027,516,288s0.057-2.042,0.165-3.041l8.513-2.129c0.458-1.713,1.14-3.334,2.006-4.834l-4.516-7.525
	c1.274-1.586,2.717-3.029,4.302-4.303l7.526,4.516c1.5-0.867,3.121-1.549,4.834-2.006l2.129-8.513
	C541.958,260.057,542.972,260,544,260 M544,256c-1.146,0-2.314,0.062-3.471,0.188c-1.667,0.183-3.045,1.381-3.451,3.008
	l-1.591,6.363c-0.45,0.172-0.896,0.356-1.334,0.555l-5.626-3.375c-0.638-0.383-1.35-0.568-2.06-0.568
	c-0.892,0-1.777,0.298-2.507,0.883c-1.807,1.453-3.46,3.105-4.912,4.912c-1.05,1.309-1.175,3.128-0.312,4.562l3.375,5.625
	c-0.198,0.439-0.384,0.887-0.556,1.334l-6.363,1.594c-1.626,0.404-2.826,1.783-3.008,3.449C512.062,285.686,512,286.854,512,288
	s0.062,2.314,0.188,3.471c0.183,1.666,1.383,3.045,3.009,3.451l6.363,1.592c0.173,0.449,0.355,0.896,0.556,1.334l-3.375,5.625
	c-0.862,1.438-0.737,3.26,0.312,4.562c1.453,1.808,3.106,3.461,4.913,4.914c0.729,0.585,1.615,0.883,2.507,0.883
	c0.71,0,1.423-0.188,2.06-0.57l5.625-3.375c0.438,0.197,0.885,0.383,1.334,0.556l1.592,6.362c0.406,1.627,1.784,2.827,3.451,3.008
	c1.154,0.125,2.322,0.188,3.471,0.188c1.146,0,2.314-0.062,3.471-0.188c1.667-0.181,3.045-1.381,3.451-3.008l1.591-6.362
	c0.45-0.173,0.896-0.355,1.334-0.556l5.625,3.375c0.639,0.382,1.351,0.57,2.06,0.57c0.893,0,1.778-0.298,2.507-0.883
	c1.808-1.453,3.46-3.105,4.913-4.912c1.05-1.307,1.175-3.128,0.312-4.564l-3.375-5.625c0.197-0.438,0.384-0.885,0.555-1.334
	l6.363-1.592c1.627-0.406,2.826-1.785,3.008-3.451c0.125-1.156,0.188-2.324,0.188-3.471s-0.062-2.314-0.188-3.471
	c-0.182-1.668-1.381-3.045-3.008-3.451l-6.363-1.592c-0.171-0.449-0.356-0.896-0.555-1.334l3.375-5.625
	c0.86-1.438,0.736-3.258-0.312-4.564c-1.452-1.806-3.104-3.459-4.912-4.912c-0.728-0.585-1.615-0.883-2.508-0.883
	c-0.709,0-1.421,0.188-2.058,0.57l-5.626,3.375c-0.438-0.198-0.885-0.383-1.334-0.555l-1.592-6.363
	c-0.405-1.627-1.783-2.827-3.45-3.008C546.314,256.062,545.146,256,544,256L544,256z"/>
<rect x="512" y="256" fill="none" width="64" height="64"/>
<path fill="#444444" d="M56,416c0-3.297-1.207-6.923-3.689-11.085c-1.789-2.996-4.252-6.266-7.322-9.717
	c-5.129-5.765-10.189-10.069-10.402-10.25C33.84,384.316,32.92,384,32,384s-1.84,0.316-2.586,0.948
	c-0.215,0.181-5.273,4.485-10.402,10.25c-3.07,3.451-5.533,6.721-7.322,9.717C9.207,409.077,8,412.703,8,416
	c0,12.56,9.699,22.896,22,23.916V446c0,1.104,0.896,2,2,2c1.105,0,2-0.896,2-2v-6.084C46.301,438.896,56,428.56,56,416z M33,435.975
	v-7.007c4.688-0.285,8.947-2.567,11.801-6.367c0.33-0.439,0.242-1.066-0.199-1.398s-1.07-0.242-1.402,0.199
	c-2.471,3.29-6.146,5.277-10.199,5.562v-10.01c3.1-0.276,5.902-1.824,7.801-4.353c0.33-0.44,0.242-1.066-0.199-1.398
	s-1.07-0.242-1.402,0.199c-1.514,2.019-3.736,3.273-6.199,3.545V405c0-0.553-0.447-1-1-1c-0.553,0-1,0.447-1,1v9.944
	c-2.463-0.271-4.686-1.527-6.199-3.545c-0.332-0.442-0.959-0.531-1.402-0.199c-0.439,0.332-0.529,0.958-0.199,1.398
	c1.898,2.526,4.701,4.074,7.801,4.353v10.01c-4.053-0.282-7.729-2.271-10.199-5.562c-0.332-0.442-0.959-0.531-1.402-0.199
	c-0.439,0.332-0.529,0.959-0.199,1.398c2.854,3.8,7.113,6.082,11.801,6.367v7.007C20.418,435.454,12,426.71,12,416
	c0-11.046,20-28,20-28s20,16.954,20,28C52,426.71,43.582,435.454,33,435.975z"/>
<rect y="384" fill="none" width="64" height="64"/>
<path fill="#444444" d="M184,392h-26.344l-2.828-2.828c-0.75-0.75-1.768-1.172-2.828-1.172h-16c-4.412,0-8,3.589-8,8v36
	c0,4.411,3.588,8,8,8h48c4.411,0,8-3.589,8-8v-32C192,395.589,188.411,392,184,392z M132,396c0-2.2,1.8-4,4-4h16l4,4h28
	c1.854,0,3.42,1.281,3.867,3H156c-0.266,0-0.52,0.105-0.707,0.293L151.585,403H132V396z M188,432c0,2.199-1.801,4-4,4h-48
	c-2.2,0-4-1.801-4-4v-27h20c0.265,0,0.52-0.105,0.707-0.293l3.707-3.707H188V432z"/>
<rect x="128" y="384" fill="none" width="64" height="64"/>
<path fill="#444444" d="M318.585,400.947C317.857,400.331,316.939,400,316,400c-0.219,0-0.438,0.018-0.658,0.055l-12,2
	c-1.215,0.202-2.225,0.939-2.807,1.945H300v-4c0-2.209-1.791-4-4-4h-36c-2.209,0-4,1.791-4,4v32c0,2.209,1.791,4,4,4h36
	c2.209,0,4-1.791,4-4v-4h0.535c0.582,1.006,1.592,1.743,2.807,1.945l12,2c0.219,0.037,0.439,0.055,0.658,0.055
	c0.939,0,1.857-0.332,2.585-0.948c0.897-0.76,1.415-1.876,1.415-3.052v-24C320,402.824,319.482,401.708,318.585,400.947z M296,432
	h-36v-32h36V432z M298,424v-16h4v16H298z M316,428l-12-2v-2v-16v-2l12-2V428z"/>
<rect x="256" y="384" fill="none" width="64" height="64"/>
<path fill="#444444" d="M440,396h-14.84c-0.562-1.25-1.379-2.42-2.395-3.354l6.939-6.939c0.391-0.391,0.391-1.023,0-1.414
	s-1.024-0.391-1.415,0l-7.14,7.141c-1.508-0.908-3.271-1.434-5.152-1.434c-1.884,0-3.647,0.523-5.153,1.434l-7.14-7.141
	c-0.393-0.391-1.024-0.391-1.415,0c-0.392,0.391-0.391,1.023,0,1.414l6.938,6.939c-1.014,0.934-1.831,2.104-2.393,3.354H392
	c-4.411,0-8,3.588-8,8v36c0,4.411,3.589,8,8,8h48c4.411,0,8-3.589,8-8v-36C448,399.588,444.411,396,440,396z M416,392
	c2.96,0,5.544,1.5,6.928,4h-13.854C410.455,393.5,413.039,392,416,392z M444,440c0,2.209-1.791,4-4,4h-48c-2.209,0-4-1.791-4-4v-36
	c0-2.209,1.791-4,4-4h48c2.209,0,4,1.791,4,4V440z M430,406v32h-36v-32H430 M430,404h-36c-1.104,0-2,0.895-2,2v32
	c0,1.104,0.896,2,2,2h36c1.104,0,2-0.896,2-2v-32C432,404.895,431.104,404,430,404L430,404z M438,406c1.104,0,2,0.896,2,2
	c0,1.103-0.896,2-2,2s-2-0.897-2-2C436,406.896,436.896,406,438,406 M438,404c-2.209,0-4,1.791-4,4s1.791,4,4,4s4-1.791,4-4
	S440.209,404,438,404L438,404z M438,416c1.104,0,2,0.896,2,2c0,1.103-0.896,2-2,2s-2-0.897-2-2C436,416.896,436.896,416,438,416
	 M438,414c-2.209,0-4,1.791-4,4s1.791,4,4,4s4-1.791,4-4S440.209,414,438,414L438,414z"/>
<rect x="384" y="384" fill="none" width="64" height="64"/>
<path fill="#444444" d="M534,410v28h-4v-28H534 M534,408h-4c-1.105,0-2,0.896-2,2v28c0,1.104,0.895,2,2,2h4c1.104,0,2-0.896,2-2v-28
	C536,408.896,535.104,408,534,408L534,408z M558,410v28h-4v-28H558 M558,408h-4c-1.105,0-2,0.896-2,2v28c0,1.104,0.895,2,2,2h4
	c1.104,0,2-0.896,2-2v-28C560,408.896,559.104,408,558,408L558,408z M546,410v28h-4v-28H546 M546,408h-4c-1.105,0-2,0.896-2,2v28
	c0,1.104,0.895,2,2,2h4c1.104,0,2-0.896,2-2v-28C548,408.896,547.104,408,546,408L546,408z M568,392h-10v-2c0-3.309-2.692-6-6-6h-16
	c-3.309,0-6,2.691-6,6v2h-10c-2.209,0-4,1.791-4,4v4c0,2.209,1.791,4,4,4v36c0,4.411,3.588,8,8,8h32c4.41,0,8-3.589,8-8v-36
	c2.209,0,4-1.791,4-4v-4C572,393.791,570.209,392,568,392z M534,390c0-1.104,0.896-2,2-2h16c1.104,0,2,0.896,2,2v2h-20V390z
	 M564,440c0,2.199-1.801,4-4,4h-32c-2.2,0-4-1.801-4-4v-38h40V440z M568,400h-48v-4h48V400z"/>
<rect x="512" y="384" fill="none" width="64" height="64"/>
</svg>
